<svg width="16" height="16" viewBox="0 0 16 16" fill="none" xmlns="http://www.w3.org/2000/svg">
<path d="M0.888889 0H6.22222C6.71111 0 7.11111 0.4 7.11111 0.888889V6.22222C7.11111 6.71111 6.71111 7.11111 6.22222 7.11111H0.888889C0.4 7.11111 0 6.71111 0 6.22222V0.888889C0 0.4 0.4 0 0.888889 0ZM9.77778 0H15.1111C15.6 0 16 0.4 16 0.888889V6.22222C16 6.71111 15.6 7.11111 15.1111 7.11111H9.77778C9.28889 7.11111 8.88889 6.71111 8.88889 6.22222V0.888889C8.88889 0.4 9.28889 0 9.77778 0ZM0.888889 8.88889H6.22222C6.71111 8.88889 7.11111 9.28889 7.11111 9.77778V15.1111C7.11111 15.6 6.71111 16 6.22222 16H0.888889C0.4 16 0 15.6 0 15.1111V9.77778C0 9.28889 0.4 8.88889 0.888889 8.88889ZM12.4444 8.88889C11.9556 8.88889 11.5556 9.28889 11.5556 9.77778V11.5556H9.77778C9.28889 11.5556 8.88889 11.9556 8.88889 12.4444C8.88889 12.9333 9.28889 13.3333 9.77778 13.3333H11.5556V15.1111C11.5556 15.6 11.9556 16 12.4444 16C12.9333 16 13.3333 15.6 13.3333 15.1111V13.3333H15.1111C15.6 13.3333 16 12.9333 16 12.4444C16 11.9556 15.6 11.5556 15.1111 11.5556H13.3333V9.77778C13.3333 9.28889 12.9333 8.88889 12.4444 8.88889Z" fill="white"/>
</svg>
