<svg width="51" height="58" viewBox="0 0 51 58" fill="none" xmlns="http://www.w3.org/2000/svg">
<path fill-rule="evenodd" clip-rule="evenodd" d="M26.8392 36.8951L25.093 37.9004L23.3471 36.8951L21.2045 35.6613L17.3162 33.4226V24.4663V20.4446V16.4229V12.4011V8.37926V4.35754L13.8237 6.36846V10.3902V14.4119V16.4229V18.4336V22.4555V35.4332L17.3162 37.4441L23.3471 40.917L25.093 41.9223L26.8392 40.9167L36.3626 35.4332V28.7473V22.4554V19.5815V18.4336V14.4119V10.3902V6.36846L32.8702 4.35754V8.37926V12.4011V16.4229V20.4446V24.4663V28.7473V28.9443V33.4226L28.9818 35.6613L26.8392 36.8951Z" fill="url(#paint0_angular_1312_5013)"/>
<path fill-rule="evenodd" clip-rule="evenodd" d="M10.4477 8.41449L6.96524 10.4236L0 14.4417V43.4808L6.96524 47.4988L10.4477 49.5079L13.9302 51.517L17.413 53.5258L23.4271 56.9957L25.1683 58L26.9095 56.9957L32.9238 53.5258L36.4065 51.517L39.889 49.5079L43.3715 47.4988L50.3368 43.4808V14.4417L43.3715 10.4236L39.889 8.41449V12.4327V16.4509V19.6067V20.4689V37.4533L36.4065 39.4624L32.9238 41.4717L26.9095 44.941L25.1683 45.9458L23.4271 44.941L17.413 41.4717L13.9302 39.4624L10.4477 37.4533V20.4689V16.4509V12.4327V8.41449Z" fill="url(#paint1_angular_1312_5013)"/>
<path fill-rule="evenodd" clip-rule="evenodd" d="M29.1502 2.31446L25.1684 0L21.1865 2.31446V4.90594V7.82515V11.8372C21.1865 15.8273 21.1865 19.5875 21.1865 23.6882V27.7002V31.7125L25.1684 33.8083L29.1502 31.7125V27.7002V23.6882C29.1502 19.5735 29.1502 15.8282 29.1502 11.8372V7.82515V4.90594V2.31446Z" fill="url(#paint2_angular_1312_5013)"/>
<defs>
<radialGradient id="paint0_angular_1312_5013" cx="0" cy="0" r="1" gradientUnits="userSpaceOnUse" gradientTransform="translate(25.0932 23.1399) rotate(90) scale(18.7824 11.2694)">
<stop offset="0.166667" stop-color="#EEEEEE"/>
<stop offset="0.395833" stop-color="#949494"/>
<stop offset="0.635417" stop-color="#F3F3F3"/>
<stop offset="0.901064" stop-color="#ACACAC"/>
<stop offset="1" stop-color="#CACACA"/>
</radialGradient>
<radialGradient id="paint1_angular_1312_5013" cx="0" cy="0" r="1" gradientUnits="userSpaceOnUse" gradientTransform="translate(25.1684 33.2072) rotate(90) scale(24.7927 25.1684)">
<stop offset="0.166667" stop-color="#EEEEEE"/>
<stop offset="0.395833" stop-color="#949494"/>
<stop offset="0.635417" stop-color="#F3F3F3"/>
<stop offset="0.901064" stop-color="#ACACAC"/>
<stop offset="1" stop-color="#CACACA"/>
</radialGradient>
<radialGradient id="paint2_angular_1312_5013" cx="0" cy="0" r="1" gradientUnits="userSpaceOnUse" gradientTransform="translate(31.7801 31.3089) rotate(130.816) scale(13.0678 20.9634)">
<stop offset="0.166667" stop-color="#EEEEEE"/>
<stop offset="0.395833" stop-color="#939393"/>
<stop offset="0.635417" stop-color="#F3F3F3"/>
<stop offset="0.901064" stop-color="#ACACAC"/>
<stop offset="1" stop-color="#CACACA"/>
</radialGradient>
</defs>
</svg>
