<svg width="290" height="36" viewBox="0 0 290 36" fill="none" xmlns="http://www.w3.org/2000/svg">
<g filter="url(#filter0_i_1289_218)">
<path fill-rule="evenodd" clip-rule="evenodd" d="M31.5203 9.00014L22.6884 3.95648L18.9174 6.10997L27.7493 11.1536V29.1536L31.5203 27.0001V9.00014ZM17.646 34.9233V6.87753L13.875 9.20875V34.9233L15.7605 36L17.646 34.9233ZM24.4295 12.9695L20.6585 10.9268V33.1339L24.4295 30.9804V12.9695Z" fill="url(#paint0_angular_1289_218)"/>
</g>
<g filter="url(#filter1_i_1289_218)">
<path d="M19.5308 2.15349L15.7598 0L0 8.99996V26.9999L3.77097 29.1534V18.7089L10.6069 14.9182V10.695L3.77097 14.4823V11.1534L19.5308 2.15349Z" fill="url(#paint1_angular_1289_218)"/>
<path d="M10.5731 33.1337V18.6357L6.80212 20.6784V30.9802L10.5731 33.1337Z" fill="url(#paint2_angular_1289_218)"/>
</g>
<g filter="url(#filter2_i_1289_218)">
<mask id="path-3-outside-1_1289_218" maskUnits="userSpaceOnUse" x="165.69" y="9.94391" width="125" height="17" fill="black">
<rect fill="white" x="165.69" y="9.94391" width="125" height="17"/>
<path d="M180.281 10.9671H180.984C181.141 10.9671 181.219 11.0444 181.219 11.199V25.112C181.219 25.2665 181.141 25.3438 180.984 25.3438H180.047C179.891 25.3438 179.758 25.2897 179.649 25.1815L168.026 12.5207C167.917 12.4125 167.862 12.4357 167.862 12.5903V25.112C167.862 25.2665 167.784 25.3438 167.628 25.3438H166.925C166.769 25.3438 166.69 25.2665 166.69 25.112V11.199C166.69 11.0444 166.769 10.9671 166.925 10.9671H167.862C168.018 10.9671 168.151 11.0212 168.26 11.1294L179.883 23.767C179.992 23.8907 180.047 23.8752 180.047 23.7207V11.199C180.047 11.0444 180.125 10.9671 180.281 10.9671Z"/>
<path d="M187.307 12.1033C187.15 12.1033 187.018 12.0492 186.908 11.941L186.065 11.1062C185.955 10.998 185.979 10.9439 186.135 10.9439H199.14C199.296 10.9439 199.374 11.0212 199.374 11.1758V11.8714C199.374 12.026 199.296 12.1033 199.14 12.1033H187.307ZM199.374 25.0888C199.374 25.2434 199.296 25.3207 199.14 25.3207H186.252C186.096 25.3207 186.018 25.2434 186.018 25.0888V24.3931C186.018 24.2385 186.096 24.1612 186.252 24.1612H199.14C199.296 24.1612 199.374 24.2385 199.374 24.3931V25.0888ZM195.86 18.4801C195.86 18.6347 195.781 18.712 195.625 18.712H186.252C186.096 18.712 186.018 18.6347 186.018 18.4801V17.7845C186.018 17.6299 186.096 17.5526 186.252 17.5526H195.625C195.781 17.5526 195.86 17.6299 195.86 17.7845V18.4801Z"/>
<path d="M204.877 12.1265C204.72 12.1265 204.588 12.0724 204.478 11.9642L203.635 11.1294C203.525 11.0212 203.549 10.9671 203.705 10.9671H216.71C216.866 10.9671 216.944 11.0444 216.944 11.199V11.8946C216.944 12.0492 216.866 12.1265 216.71 12.1265H210.852V25.112C210.852 25.2665 210.774 25.3438 210.618 25.3438H209.915C209.758 25.3438 209.68 25.2665 209.68 25.112V12.1265H204.877Z"/>
<path d="M235.109 11.199V22.6772C235.109 23.4192 234.844 24.053 234.313 24.5786C233.797 25.0888 233.164 25.3438 232.415 25.3438H229.954C229.142 25.3438 228.47 25.0424 227.939 24.4395C227.908 24.4086 227.876 24.3699 227.845 24.3236C227.814 24.3699 227.783 24.4086 227.751 24.4395C227.22 25.0424 226.549 25.3438 225.736 25.3438H223.276C222.526 25.3438 221.885 25.0888 221.354 24.5786C220.839 24.053 220.581 23.4192 220.581 22.6772V11.199C220.581 11.0444 220.659 10.9671 220.815 10.9671H221.518C221.675 10.9671 221.753 11.0444 221.753 11.199V22.6772C221.753 23.0946 221.901 23.4501 222.198 23.7439C222.495 24.0376 222.854 24.1844 223.276 24.1844H225.736C226.158 24.1844 226.517 24.0376 226.814 23.7439C227.111 23.4501 227.259 23.0946 227.259 22.6772V15.9526C227.259 15.798 227.337 15.7207 227.494 15.7207H228.197C228.353 15.7207 228.431 15.798 228.431 15.9526V22.6772C228.431 23.0946 228.579 23.4501 228.876 23.7439C229.173 24.0376 229.532 24.1844 229.954 24.1844H232.415C232.836 24.1844 233.196 24.0376 233.492 23.7439C233.789 23.4501 233.938 23.0946 233.938 22.6772V11.199C233.938 11.0444 234.016 10.9671 234.172 10.9671H234.875C235.031 10.9671 235.109 11.0444 235.109 11.199Z"/>
<path d="M249.75 25.3207H243.423C242.299 25.3207 241.33 24.9265 240.518 24.138C239.721 23.3342 239.323 22.3757 239.323 21.2627V15.0019C239.323 13.8888 239.721 12.9381 240.518 12.1497C241.33 11.3458 242.299 10.9439 243.423 10.9439H249.75C250.875 10.9439 251.836 11.3458 252.632 12.1497C253.445 12.9381 253.851 13.8888 253.851 15.0019V21.2627C253.851 22.3757 253.445 23.3342 252.632 24.138C251.836 24.9265 250.875 25.3207 249.75 25.3207ZM243.423 12.1033C242.611 12.1033 241.916 12.3893 241.338 12.9613C240.775 13.5178 240.494 14.198 240.494 15.0019V21.2627C240.494 22.0666 240.775 22.7545 241.338 23.3265C241.916 23.883 242.611 24.1612 243.423 24.1612H249.75C250.562 24.1612 251.25 23.883 251.812 23.3265C252.39 22.7545 252.679 22.0666 252.679 21.2627V15.0019C252.679 14.198 252.39 13.5178 251.812 12.9613C251.25 12.3893 250.562 12.1033 249.75 12.1033H243.423Z"/>
<path d="M271.187 25.3438H269.991C269.835 25.3438 269.702 25.2897 269.593 25.1815L262.071 17.7381C261.962 17.6299 261.985 17.5758 262.141 17.5758H265.492C266.242 17.5758 266.883 17.313 267.414 16.7874C267.961 16.2618 268.242 15.6279 268.257 14.8859C268.257 14.8705 268.257 14.855 268.257 14.8395C268.257 14.3603 268.125 13.912 267.859 13.4946C267.593 13.0618 267.234 12.7294 266.781 12.4975C266.344 12.2502 265.859 12.1265 265.328 12.1265H258.299C258.142 12.1265 258.01 12.0724 257.9 11.9642L257.057 11.1294C256.947 11.0212 256.971 10.9671 257.127 10.9671H265.328C266.453 10.9671 267.414 11.3458 268.211 12.1033C269.023 12.8608 269.429 13.7806 269.429 14.8627C269.429 15.9294 269.038 16.8415 268.257 17.599C267.492 18.3564 266.57 18.7352 265.492 18.7352H264.743L264.907 18.8975L271.257 25.1815C271.366 25.2897 271.343 25.3438 271.187 25.3438Z"/>
<path d="M288.555 15.8598C288.273 16.3236 287.883 16.7255 287.383 17.0656C287.117 17.2666 286.821 17.4366 286.493 17.5758H286.516C286.828 17.7149 287.117 17.8772 287.383 18.0627C287.883 18.4183 288.273 18.8279 288.555 19.2917C288.852 19.8018 289 20.3274 289 20.8685V25.112C289 25.2665 288.922 25.3438 288.766 25.3438H288.063C287.906 25.3438 287.828 25.2665 287.828 25.112V20.8685C287.828 20.1574 287.453 19.539 286.703 19.0134C285.891 18.4415 284.899 18.1555 283.728 18.1555H275.643V25.112C275.643 25.2665 275.565 25.3438 275.409 25.3438H274.706C274.55 25.3438 274.472 25.2665 274.472 25.112V11.199C274.472 11.0444 274.55 10.9671 274.706 10.9671H275.409C275.565 10.9671 275.643 11.0444 275.643 11.199V16.9961H283.728C284.899 16.9961 285.891 16.7101 286.703 16.1381C287.453 15.597 287.828 14.9709 287.828 14.2598V11.199C287.828 11.0444 287.906 10.9671 288.063 10.9671H288.766C288.922 10.9671 289 11.0444 289 11.199V14.2598C289 14.8164 288.852 15.3497 288.555 15.8598Z"/>
</mask>
<path d="M180.281 10.9671H180.984C181.141 10.9671 181.219 11.0444 181.219 11.199V25.112C181.219 25.2665 181.141 25.3438 180.984 25.3438H180.047C179.891 25.3438 179.758 25.2897 179.649 25.1815L168.026 12.5207C167.917 12.4125 167.862 12.4357 167.862 12.5903V25.112C167.862 25.2665 167.784 25.3438 167.628 25.3438H166.925C166.769 25.3438 166.69 25.2665 166.69 25.112V11.199C166.69 11.0444 166.769 10.9671 166.925 10.9671H167.862C168.018 10.9671 168.151 11.0212 168.26 11.1294L179.883 23.767C179.992 23.8907 180.047 23.8752 180.047 23.7207V11.199C180.047 11.0444 180.125 10.9671 180.281 10.9671Z" fill="url(#paint3_angular_1289_218)"/>
<path d="M187.307 12.1033C187.15 12.1033 187.018 12.0492 186.908 11.941L186.065 11.1062C185.955 10.998 185.979 10.9439 186.135 10.9439H199.14C199.296 10.9439 199.374 11.0212 199.374 11.1758V11.8714C199.374 12.026 199.296 12.1033 199.14 12.1033H187.307ZM199.374 25.0888C199.374 25.2434 199.296 25.3207 199.14 25.3207H186.252C186.096 25.3207 186.018 25.2434 186.018 25.0888V24.3931C186.018 24.2385 186.096 24.1612 186.252 24.1612H199.14C199.296 24.1612 199.374 24.2385 199.374 24.3931V25.0888ZM195.86 18.4801C195.86 18.6347 195.781 18.712 195.625 18.712H186.252C186.096 18.712 186.018 18.6347 186.018 18.4801V17.7845C186.018 17.6299 186.096 17.5526 186.252 17.5526H195.625C195.781 17.5526 195.86 17.6299 195.86 17.7845V18.4801Z" fill="url(#paint4_angular_1289_218)"/>
<path d="M204.877 12.1265C204.72 12.1265 204.588 12.0724 204.478 11.9642L203.635 11.1294C203.525 11.0212 203.549 10.9671 203.705 10.9671H216.71C216.866 10.9671 216.944 11.0444 216.944 11.199V11.8946C216.944 12.0492 216.866 12.1265 216.71 12.1265H210.852V25.112C210.852 25.2665 210.774 25.3438 210.618 25.3438H209.915C209.758 25.3438 209.68 25.2665 209.68 25.112V12.1265H204.877Z" fill="url(#paint5_angular_1289_218)"/>
<path d="M235.109 11.199V22.6772C235.109 23.4192 234.844 24.053 234.313 24.5786C233.797 25.0888 233.164 25.3438 232.415 25.3438H229.954C229.142 25.3438 228.47 25.0424 227.939 24.4395C227.908 24.4086 227.876 24.3699 227.845 24.3236C227.814 24.3699 227.783 24.4086 227.751 24.4395C227.22 25.0424 226.549 25.3438 225.736 25.3438H223.276C222.526 25.3438 221.885 25.0888 221.354 24.5786C220.839 24.053 220.581 23.4192 220.581 22.6772V11.199C220.581 11.0444 220.659 10.9671 220.815 10.9671H221.518C221.675 10.9671 221.753 11.0444 221.753 11.199V22.6772C221.753 23.0946 221.901 23.4501 222.198 23.7439C222.495 24.0376 222.854 24.1844 223.276 24.1844H225.736C226.158 24.1844 226.517 24.0376 226.814 23.7439C227.111 23.4501 227.259 23.0946 227.259 22.6772V15.9526C227.259 15.798 227.337 15.7207 227.494 15.7207H228.197C228.353 15.7207 228.431 15.798 228.431 15.9526V22.6772C228.431 23.0946 228.579 23.4501 228.876 23.7439C229.173 24.0376 229.532 24.1844 229.954 24.1844H232.415C232.836 24.1844 233.196 24.0376 233.492 23.7439C233.789 23.4501 233.938 23.0946 233.938 22.6772V11.199C233.938 11.0444 234.016 10.9671 234.172 10.9671H234.875C235.031 10.9671 235.109 11.0444 235.109 11.199Z" fill="url(#paint6_angular_1289_218)"/>
<path d="M249.75 25.3207H243.423C242.299 25.3207 241.33 24.9265 240.518 24.138C239.721 23.3342 239.323 22.3757 239.323 21.2627V15.0019C239.323 13.8888 239.721 12.9381 240.518 12.1497C241.33 11.3458 242.299 10.9439 243.423 10.9439H249.75C250.875 10.9439 251.836 11.3458 252.632 12.1497C253.445 12.9381 253.851 13.8888 253.851 15.0019V21.2627C253.851 22.3757 253.445 23.3342 252.632 24.138C251.836 24.9265 250.875 25.3207 249.75 25.3207ZM243.423 12.1033C242.611 12.1033 241.916 12.3893 241.338 12.9613C240.775 13.5178 240.494 14.198 240.494 15.0019V21.2627C240.494 22.0666 240.775 22.7545 241.338 23.3265C241.916 23.883 242.611 24.1612 243.423 24.1612H249.75C250.562 24.1612 251.25 23.883 251.812 23.3265C252.39 22.7545 252.679 22.0666 252.679 21.2627V15.0019C252.679 14.198 252.39 13.5178 251.812 12.9613C251.25 12.3893 250.562 12.1033 249.75 12.1033H243.423Z" fill="url(#paint7_angular_1289_218)"/>
<path d="M271.187 25.3438H269.991C269.835 25.3438 269.702 25.2897 269.593 25.1815L262.071 17.7381C261.962 17.6299 261.985 17.5758 262.141 17.5758H265.492C266.242 17.5758 266.883 17.313 267.414 16.7874C267.961 16.2618 268.242 15.6279 268.257 14.8859C268.257 14.8705 268.257 14.855 268.257 14.8395C268.257 14.3603 268.125 13.912 267.859 13.4946C267.593 13.0618 267.234 12.7294 266.781 12.4975C266.344 12.2502 265.859 12.1265 265.328 12.1265H258.299C258.142 12.1265 258.01 12.0724 257.9 11.9642L257.057 11.1294C256.947 11.0212 256.971 10.9671 257.127 10.9671H265.328C266.453 10.9671 267.414 11.3458 268.211 12.1033C269.023 12.8608 269.429 13.7806 269.429 14.8627C269.429 15.9294 269.038 16.8415 268.257 17.599C267.492 18.3564 266.57 18.7352 265.492 18.7352H264.743L264.907 18.8975L271.257 25.1815C271.366 25.2897 271.343 25.3438 271.187 25.3438Z" fill="url(#paint8_angular_1289_218)"/>
<path d="M288.555 15.8598C288.273 16.3236 287.883 16.7255 287.383 17.0656C287.117 17.2666 286.821 17.4366 286.493 17.5758H286.516C286.828 17.7149 287.117 17.8772 287.383 18.0627C287.883 18.4183 288.273 18.8279 288.555 19.2917C288.852 19.8018 289 20.3274 289 20.8685V25.112C289 25.2665 288.922 25.3438 288.766 25.3438H288.063C287.906 25.3438 287.828 25.2665 287.828 25.112V20.8685C287.828 20.1574 287.453 19.539 286.703 19.0134C285.891 18.4415 284.899 18.1555 283.728 18.1555H275.643V25.112C275.643 25.2665 275.565 25.3438 275.409 25.3438H274.706C274.55 25.3438 274.472 25.2665 274.472 25.112V11.199C274.472 11.0444 274.55 10.9671 274.706 10.9671H275.409C275.565 10.9671 275.643 11.0444 275.643 11.199V16.9961H283.728C284.899 16.9961 285.891 16.7101 286.703 16.1381C287.453 15.597 287.828 14.9709 287.828 14.2598V11.199C287.828 11.0444 287.906 10.9671 288.063 10.9671H288.766C288.922 10.9671 289 11.0444 289 11.199V14.2598C289 14.8164 288.852 15.3497 288.555 15.8598Z" fill="url(#paint9_angular_1289_218)"/>
<path d="M180.281 10.9671H180.984C181.141 10.9671 181.219 11.0444 181.219 11.199V25.112C181.219 25.2665 181.141 25.3438 180.984 25.3438H180.047C179.891 25.3438 179.758 25.2897 179.649 25.1815L168.026 12.5207C167.917 12.4125 167.862 12.4357 167.862 12.5903V25.112C167.862 25.2665 167.784 25.3438 167.628 25.3438H166.925C166.769 25.3438 166.69 25.2665 166.69 25.112V11.199C166.69 11.0444 166.769 10.9671 166.925 10.9671H167.862C168.018 10.9671 168.151 11.0212 168.26 11.1294L179.883 23.767C179.992 23.8907 180.047 23.8752 180.047 23.7207V11.199C180.047 11.0444 180.125 10.9671 180.281 10.9671Z" stroke="url(#paint10_angular_1289_218)" stroke-width="2" mask="url(#path-3-outside-1_1289_218)"/>
<path d="M187.307 12.1033C187.15 12.1033 187.018 12.0492 186.908 11.941L186.065 11.1062C185.955 10.998 185.979 10.9439 186.135 10.9439H199.14C199.296 10.9439 199.374 11.0212 199.374 11.1758V11.8714C199.374 12.026 199.296 12.1033 199.14 12.1033H187.307ZM199.374 25.0888C199.374 25.2434 199.296 25.3207 199.14 25.3207H186.252C186.096 25.3207 186.018 25.2434 186.018 25.0888V24.3931C186.018 24.2385 186.096 24.1612 186.252 24.1612H199.14C199.296 24.1612 199.374 24.2385 199.374 24.3931V25.0888ZM195.86 18.4801C195.86 18.6347 195.781 18.712 195.625 18.712H186.252C186.096 18.712 186.018 18.6347 186.018 18.4801V17.7845C186.018 17.6299 186.096 17.5526 186.252 17.5526H195.625C195.781 17.5526 195.86 17.6299 195.86 17.7845V18.4801Z" stroke="url(#paint11_angular_1289_218)" stroke-width="2" mask="url(#path-3-outside-1_1289_218)"/>
<path d="M204.877 12.1265C204.72 12.1265 204.588 12.0724 204.478 11.9642L203.635 11.1294C203.525 11.0212 203.549 10.9671 203.705 10.9671H216.71C216.866 10.9671 216.944 11.0444 216.944 11.199V11.8946C216.944 12.0492 216.866 12.1265 216.71 12.1265H210.852V25.112C210.852 25.2665 210.774 25.3438 210.618 25.3438H209.915C209.758 25.3438 209.68 25.2665 209.68 25.112V12.1265H204.877Z" stroke="url(#paint12_angular_1289_218)" stroke-width="2" mask="url(#path-3-outside-1_1289_218)"/>
<path d="M235.109 11.199V22.6772C235.109 23.4192 234.844 24.053 234.313 24.5786C233.797 25.0888 233.164 25.3438 232.415 25.3438H229.954C229.142 25.3438 228.47 25.0424 227.939 24.4395C227.908 24.4086 227.876 24.3699 227.845 24.3236C227.814 24.3699 227.783 24.4086 227.751 24.4395C227.22 25.0424 226.549 25.3438 225.736 25.3438H223.276C222.526 25.3438 221.885 25.0888 221.354 24.5786C220.839 24.053 220.581 23.4192 220.581 22.6772V11.199C220.581 11.0444 220.659 10.9671 220.815 10.9671H221.518C221.675 10.9671 221.753 11.0444 221.753 11.199V22.6772C221.753 23.0946 221.901 23.4501 222.198 23.7439C222.495 24.0376 222.854 24.1844 223.276 24.1844H225.736C226.158 24.1844 226.517 24.0376 226.814 23.7439C227.111 23.4501 227.259 23.0946 227.259 22.6772V15.9526C227.259 15.798 227.337 15.7207 227.494 15.7207H228.197C228.353 15.7207 228.431 15.798 228.431 15.9526V22.6772C228.431 23.0946 228.579 23.4501 228.876 23.7439C229.173 24.0376 229.532 24.1844 229.954 24.1844H232.415C232.836 24.1844 233.196 24.0376 233.492 23.7439C233.789 23.4501 233.938 23.0946 233.938 22.6772V11.199C233.938 11.0444 234.016 10.9671 234.172 10.9671H234.875C235.031 10.9671 235.109 11.0444 235.109 11.199Z" stroke="url(#paint13_angular_1289_218)" stroke-width="2" mask="url(#path-3-outside-1_1289_218)"/>
<path d="M249.75 25.3207H243.423C242.299 25.3207 241.33 24.9265 240.518 24.138C239.721 23.3342 239.323 22.3757 239.323 21.2627V15.0019C239.323 13.8888 239.721 12.9381 240.518 12.1497C241.33 11.3458 242.299 10.9439 243.423 10.9439H249.75C250.875 10.9439 251.836 11.3458 252.632 12.1497C253.445 12.9381 253.851 13.8888 253.851 15.0019V21.2627C253.851 22.3757 253.445 23.3342 252.632 24.138C251.836 24.9265 250.875 25.3207 249.75 25.3207ZM243.423 12.1033C242.611 12.1033 241.916 12.3893 241.338 12.9613C240.775 13.5178 240.494 14.198 240.494 15.0019V21.2627C240.494 22.0666 240.775 22.7545 241.338 23.3265C241.916 23.883 242.611 24.1612 243.423 24.1612H249.75C250.562 24.1612 251.25 23.883 251.812 23.3265C252.39 22.7545 252.679 22.0666 252.679 21.2627V15.0019C252.679 14.198 252.39 13.5178 251.812 12.9613C251.25 12.3893 250.562 12.1033 249.75 12.1033H243.423Z" stroke="url(#paint14_angular_1289_218)" stroke-width="2" mask="url(#path-3-outside-1_1289_218)"/>
<path d="M271.187 25.3438H269.991C269.835 25.3438 269.702 25.2897 269.593 25.1815L262.071 17.7381C261.962 17.6299 261.985 17.5758 262.141 17.5758H265.492C266.242 17.5758 266.883 17.313 267.414 16.7874C267.961 16.2618 268.242 15.6279 268.257 14.8859C268.257 14.8705 268.257 14.855 268.257 14.8395C268.257 14.3603 268.125 13.912 267.859 13.4946C267.593 13.0618 267.234 12.7294 266.781 12.4975C266.344 12.2502 265.859 12.1265 265.328 12.1265H258.299C258.142 12.1265 258.01 12.0724 257.9 11.9642L257.057 11.1294C256.947 11.0212 256.971 10.9671 257.127 10.9671H265.328C266.453 10.9671 267.414 11.3458 268.211 12.1033C269.023 12.8608 269.429 13.7806 269.429 14.8627C269.429 15.9294 269.038 16.8415 268.257 17.599C267.492 18.3564 266.57 18.7352 265.492 18.7352H264.743L264.907 18.8975L271.257 25.1815C271.366 25.2897 271.343 25.3438 271.187 25.3438Z" stroke="url(#paint15_angular_1289_218)" stroke-width="2" mask="url(#path-3-outside-1_1289_218)"/>
<path d="M288.555 15.8598C288.273 16.3236 287.883 16.7255 287.383 17.0656C287.117 17.2666 286.821 17.4366 286.493 17.5758H286.516C286.828 17.7149 287.117 17.8772 287.383 18.0627C287.883 18.4183 288.273 18.8279 288.555 19.2917C288.852 19.8018 289 20.3274 289 20.8685V25.112C289 25.2665 288.922 25.3438 288.766 25.3438H288.063C287.906 25.3438 287.828 25.2665 287.828 25.112V20.8685C287.828 20.1574 287.453 19.539 286.703 19.0134C285.891 18.4415 284.899 18.1555 283.728 18.1555H275.643V25.112C275.643 25.2665 275.565 25.3438 275.409 25.3438H274.706C274.55 25.3438 274.472 25.2665 274.472 25.112V11.199C274.472 11.0444 274.55 10.9671 274.706 10.9671H275.409C275.565 10.9671 275.643 11.0444 275.643 11.199V16.9961H283.728C284.899 16.9961 285.891 16.7101 286.703 16.1381C287.453 15.597 287.828 14.9709 287.828 14.2598V11.199C287.828 11.0444 287.906 10.9671 288.063 10.9671H288.766C288.922 10.9671 289 11.0444 289 11.199V14.2598C289 14.8164 288.852 15.3497 288.555 15.8598Z" stroke="url(#paint16_angular_1289_218)" stroke-width="2" mask="url(#path-3-outside-1_1289_218)"/>
<mask id="path-4-outside-2_1289_218" maskUnits="userSpaceOnUse" x="46.9202" y="9.94391" width="105" height="17" fill="black">
<rect fill="white" x="46.9202" y="9.94391" width="105" height="17"/>
<path d="M50.2296 12.1265C50.0734 12.1265 49.9406 12.0724 49.8313 11.9642L48.9877 11.1294C48.8784 11.0212 48.9018 10.9671 49.058 10.9671H62.0631C62.2194 10.9671 62.2975 11.0444 62.2975 11.199V11.8946C62.2975 12.0492 62.2194 12.1265 62.0631 12.1265H50.2296ZM58.3608 17.8076V18.5033C58.3608 18.6579 58.2827 18.7352 58.1265 18.7352H51.8699C51.7137 18.7352 51.5731 18.7893 51.4481 18.8975C51.3388 19.0057 51.2841 19.1448 51.2841 19.3149V25.112C51.2841 25.2665 51.206 25.3438 51.0498 25.3438H50.3468C50.1906 25.3438 50.1125 25.2665 50.1125 25.112V19.3149C50.1125 18.8357 50.2843 18.426 50.628 18.0859C50.9717 17.7458 51.3857 17.5758 51.8699 17.5758H58.1265C58.2827 17.5758 58.3608 17.6531 58.3608 17.8076Z"/>
<path d="M67.8087 12.1033C67.6525 12.1033 67.5197 12.0492 67.4104 11.941L66.5668 11.1062C66.4574 10.998 66.4809 10.9439 66.6371 10.9439H79.6422C79.7985 10.9439 79.8766 11.0212 79.8766 11.1758V11.8714C79.8766 12.026 79.7985 12.1033 79.6422 12.1033H67.8087ZM79.8766 25.0888C79.8766 25.2434 79.7985 25.3207 79.6422 25.3207H66.7543C66.598 25.3207 66.5199 25.2434 66.5199 25.0888V24.3931C66.5199 24.2385 66.598 24.1612 66.7543 24.1612H79.6422C79.7985 24.1612 79.8766 24.2385 79.8766 24.3931V25.0888ZM76.3617 18.4801C76.3617 18.6347 76.2836 18.712 76.1273 18.712H66.7543C66.598 18.712 66.5199 18.6347 66.5199 18.4801V17.7845C66.5199 17.6299 66.598 17.5526 66.7543 17.5526H76.1273C76.2836 17.5526 76.3617 17.6299 76.3617 17.7845V18.4801Z"/>
<path d="M97.798 25.3438H96.6029C96.4467 25.3438 96.3139 25.2897 96.2046 25.1815L88.6827 17.7381C88.5733 17.6299 88.5968 17.5758 88.753 17.5758H92.1039C92.8537 17.5758 93.4942 17.313 94.0253 16.7874C94.5721 16.2618 94.8533 15.6279 94.8689 14.8859C94.8689 14.8705 94.8689 14.855 94.8689 14.8395C94.8689 14.3603 94.7361 13.912 94.4706 13.4946C94.205 13.0618 93.8457 12.7294 93.3927 12.4975C92.9552 12.2502 92.471 12.1265 91.9398 12.1265H84.91C84.7538 12.1265 84.621 12.0724 84.5117 11.9642L83.6681 11.1294C83.5587 11.0212 83.5822 10.9671 83.7384 10.9671H91.9398C93.0646 10.9671 94.0253 11.3458 94.8221 12.1033C95.6344 12.8608 96.0406 13.7806 96.0406 14.8627C96.0406 15.9294 95.65 16.8415 94.8689 17.599C94.1034 18.3564 93.1818 18.7352 92.1039 18.7352H91.354L91.518 18.8975L97.8683 25.1815C97.9777 25.2897 97.9542 25.3438 97.798 25.3438Z"/>
<path d="M114.205 25.3438H113.01C112.854 25.3438 112.721 25.2897 112.612 25.1815L105.09 17.7381C104.981 17.6299 105.004 17.5758 105.16 17.5758H108.511C109.261 17.5758 109.902 17.313 110.433 16.7874C110.98 16.2618 111.261 15.6279 111.276 14.8859C111.276 14.8705 111.276 14.855 111.276 14.8395C111.276 14.3603 111.144 13.912 110.878 13.4946C110.612 13.0618 110.253 12.7294 109.8 12.4975C109.363 12.2502 108.878 12.1265 108.347 12.1265H101.317C101.161 12.1265 101.028 12.0724 100.919 11.9642L100.076 11.1294C99.9662 11.0212 99.9896 10.9671 100.146 10.9671H108.347C109.472 10.9671 110.433 11.3458 111.23 12.1033C112.042 12.8608 112.448 13.7806 112.448 14.8627C112.448 15.9294 112.057 16.8415 111.276 17.599C110.511 18.3564 109.589 18.7352 108.511 18.7352H107.761L107.925 18.8975L114.276 25.1815C114.385 25.2897 114.362 25.3438 114.205 25.3438Z"/>
<path d="M132.019 11.199V21.2859C132.019 22.3989 131.613 23.3574 130.8 24.1612C130.004 24.9496 129.043 25.3438 127.918 25.3438H121.591C120.467 25.3438 119.498 24.9496 118.686 24.1612C117.889 23.3574 117.491 22.3989 117.491 21.2859V11.199C117.491 11.0444 117.569 10.9671 117.725 10.9671H118.428C118.584 10.9671 118.662 11.0444 118.662 11.199V21.2859C118.662 22.0897 118.943 22.7777 119.506 23.3496C120.084 23.9062 120.779 24.1844 121.591 24.1844H127.918C128.73 24.1844 129.418 23.9062 129.98 23.3496C130.558 22.7777 130.847 22.0897 130.847 21.2859V11.199C130.847 11.0444 130.925 10.9671 131.082 10.9671H131.785C131.941 10.9671 132.019 11.0444 132.019 11.199Z"/>
<path d="M149.589 10.9671H150.526C150.682 10.9671 150.76 11.0444 150.76 11.199V25.112C150.76 25.2665 150.682 25.3438 150.526 25.3438H149.823C149.667 25.3438 149.589 25.2665 149.589 25.112V12.5903C149.589 12.4357 149.534 12.4125 149.425 12.5207L143.66 18.225C143.551 18.3332 143.442 18.3332 143.332 18.225L137.568 12.5207C137.458 12.4125 137.404 12.4357 137.404 12.5903V25.112C137.404 25.2665 137.326 25.3438 137.169 25.3438H136.467C136.31 25.3438 136.232 25.2665 136.232 25.112V18.1555V11.199C136.232 11.0444 136.31 10.9671 136.467 10.9671H137.404C137.56 10.9671 137.693 11.0212 137.802 11.1294L143.332 16.5787C143.442 16.7023 143.551 16.7023 143.66 16.5787L149.19 11.1294C149.3 11.0212 149.433 10.9671 149.589 10.9671Z"/>
</mask>
<path d="M50.2296 12.1265C50.0734 12.1265 49.9406 12.0724 49.8313 11.9642L48.9877 11.1294C48.8784 11.0212 48.9018 10.9671 49.058 10.9671H62.0631C62.2194 10.9671 62.2975 11.0444 62.2975 11.199V11.8946C62.2975 12.0492 62.2194 12.1265 62.0631 12.1265H50.2296ZM58.3608 17.8076V18.5033C58.3608 18.6579 58.2827 18.7352 58.1265 18.7352H51.8699C51.7137 18.7352 51.5731 18.7893 51.4481 18.8975C51.3388 19.0057 51.2841 19.1448 51.2841 19.3149V25.112C51.2841 25.2665 51.206 25.3438 51.0498 25.3438H50.3468C50.1906 25.3438 50.1125 25.2665 50.1125 25.112V19.3149C50.1125 18.8357 50.2843 18.426 50.628 18.0859C50.9717 17.7458 51.3857 17.5758 51.8699 17.5758H58.1265C58.2827 17.5758 58.3608 17.6531 58.3608 17.8076Z" fill="url(#paint17_angular_1289_218)"/>
<path d="M67.8087 12.1033C67.6525 12.1033 67.5197 12.0492 67.4104 11.941L66.5668 11.1062C66.4574 10.998 66.4809 10.9439 66.6371 10.9439H79.6422C79.7985 10.9439 79.8766 11.0212 79.8766 11.1758V11.8714C79.8766 12.026 79.7985 12.1033 79.6422 12.1033H67.8087ZM79.8766 25.0888C79.8766 25.2434 79.7985 25.3207 79.6422 25.3207H66.7543C66.598 25.3207 66.5199 25.2434 66.5199 25.0888V24.3931C66.5199 24.2385 66.598 24.1612 66.7543 24.1612H79.6422C79.7985 24.1612 79.8766 24.2385 79.8766 24.3931V25.0888ZM76.3617 18.4801C76.3617 18.6347 76.2836 18.712 76.1273 18.712H66.7543C66.598 18.712 66.5199 18.6347 66.5199 18.4801V17.7845C66.5199 17.6299 66.598 17.5526 66.7543 17.5526H76.1273C76.2836 17.5526 76.3617 17.6299 76.3617 17.7845V18.4801Z" fill="url(#paint18_angular_1289_218)"/>
<path d="M97.798 25.3438H96.6029C96.4467 25.3438 96.3139 25.2897 96.2046 25.1815L88.6827 17.7381C88.5733 17.6299 88.5968 17.5758 88.753 17.5758H92.1039C92.8537 17.5758 93.4942 17.313 94.0253 16.7874C94.5721 16.2618 94.8533 15.6279 94.8689 14.8859C94.8689 14.8705 94.8689 14.855 94.8689 14.8395C94.8689 14.3603 94.7361 13.912 94.4706 13.4946C94.205 13.0618 93.8457 12.7294 93.3927 12.4975C92.9552 12.2502 92.471 12.1265 91.9398 12.1265H84.91C84.7538 12.1265 84.621 12.0724 84.5117 11.9642L83.6681 11.1294C83.5587 11.0212 83.5822 10.9671 83.7384 10.9671H91.9398C93.0646 10.9671 94.0253 11.3458 94.8221 12.1033C95.6344 12.8608 96.0406 13.7806 96.0406 14.8627C96.0406 15.9294 95.65 16.8415 94.8689 17.599C94.1034 18.3564 93.1818 18.7352 92.1039 18.7352H91.354L91.518 18.8975L97.8683 25.1815C97.9777 25.2897 97.9542 25.3438 97.798 25.3438Z" fill="url(#paint19_angular_1289_218)"/>
<path d="M114.205 25.3438H113.01C112.854 25.3438 112.721 25.2897 112.612 25.1815L105.09 17.7381C104.981 17.6299 105.004 17.5758 105.16 17.5758H108.511C109.261 17.5758 109.902 17.313 110.433 16.7874C110.98 16.2618 111.261 15.6279 111.276 14.8859C111.276 14.8705 111.276 14.855 111.276 14.8395C111.276 14.3603 111.144 13.912 110.878 13.4946C110.612 13.0618 110.253 12.7294 109.8 12.4975C109.363 12.2502 108.878 12.1265 108.347 12.1265H101.317C101.161 12.1265 101.028 12.0724 100.919 11.9642L100.076 11.1294C99.9662 11.0212 99.9896 10.9671 100.146 10.9671H108.347C109.472 10.9671 110.433 11.3458 111.23 12.1033C112.042 12.8608 112.448 13.7806 112.448 14.8627C112.448 15.9294 112.057 16.8415 111.276 17.599C110.511 18.3564 109.589 18.7352 108.511 18.7352H107.761L107.925 18.8975L114.276 25.1815C114.385 25.2897 114.362 25.3438 114.205 25.3438Z" fill="url(#paint20_angular_1289_218)"/>
<path d="M132.019 11.199V21.2859C132.019 22.3989 131.613 23.3574 130.8 24.1612C130.004 24.9496 129.043 25.3438 127.918 25.3438H121.591C120.467 25.3438 119.498 24.9496 118.686 24.1612C117.889 23.3574 117.491 22.3989 117.491 21.2859V11.199C117.491 11.0444 117.569 10.9671 117.725 10.9671H118.428C118.584 10.9671 118.662 11.0444 118.662 11.199V21.2859C118.662 22.0897 118.943 22.7777 119.506 23.3496C120.084 23.9062 120.779 24.1844 121.591 24.1844H127.918C128.73 24.1844 129.418 23.9062 129.98 23.3496C130.558 22.7777 130.847 22.0897 130.847 21.2859V11.199C130.847 11.0444 130.925 10.9671 131.082 10.9671H131.785C131.941 10.9671 132.019 11.0444 132.019 11.199Z" fill="url(#paint21_angular_1289_218)"/>
<path d="M149.589 10.9671H150.526C150.682 10.9671 150.76 11.0444 150.76 11.199V25.112C150.76 25.2665 150.682 25.3438 150.526 25.3438H149.823C149.667 25.3438 149.589 25.2665 149.589 25.112V12.5903C149.589 12.4357 149.534 12.4125 149.425 12.5207L143.66 18.225C143.551 18.3332 143.442 18.3332 143.332 18.225L137.568 12.5207C137.458 12.4125 137.404 12.4357 137.404 12.5903V25.112C137.404 25.2665 137.326 25.3438 137.169 25.3438H136.467C136.31 25.3438 136.232 25.2665 136.232 25.112V18.1555V11.199C136.232 11.0444 136.31 10.9671 136.467 10.9671H137.404C137.56 10.9671 137.693 11.0212 137.802 11.1294L143.332 16.5787C143.442 16.7023 143.551 16.7023 143.66 16.5787L149.19 11.1294C149.3 11.0212 149.433 10.9671 149.589 10.9671Z" fill="url(#paint22_angular_1289_218)"/>
<path d="M50.2296 12.1265C50.0734 12.1265 49.9406 12.0724 49.8313 11.9642L48.9877 11.1294C48.8784 11.0212 48.9018 10.9671 49.058 10.9671H62.0631C62.2194 10.9671 62.2975 11.0444 62.2975 11.199V11.8946C62.2975 12.0492 62.2194 12.1265 62.0631 12.1265H50.2296ZM58.3608 17.8076V18.5033C58.3608 18.6579 58.2827 18.7352 58.1265 18.7352H51.8699C51.7137 18.7352 51.5731 18.7893 51.4481 18.8975C51.3388 19.0057 51.2841 19.1448 51.2841 19.3149V25.112C51.2841 25.2665 51.206 25.3438 51.0498 25.3438H50.3468C50.1906 25.3438 50.1125 25.2665 50.1125 25.112V19.3149C50.1125 18.8357 50.2843 18.426 50.628 18.0859C50.9717 17.7458 51.3857 17.5758 51.8699 17.5758H58.1265C58.2827 17.5758 58.3608 17.6531 58.3608 17.8076Z" stroke="url(#paint23_angular_1289_218)" stroke-width="2" mask="url(#path-4-outside-2_1289_218)"/>
<path d="M67.8087 12.1033C67.6525 12.1033 67.5197 12.0492 67.4104 11.941L66.5668 11.1062C66.4574 10.998 66.4809 10.9439 66.6371 10.9439H79.6422C79.7985 10.9439 79.8766 11.0212 79.8766 11.1758V11.8714C79.8766 12.026 79.7985 12.1033 79.6422 12.1033H67.8087ZM79.8766 25.0888C79.8766 25.2434 79.7985 25.3207 79.6422 25.3207H66.7543C66.598 25.3207 66.5199 25.2434 66.5199 25.0888V24.3931C66.5199 24.2385 66.598 24.1612 66.7543 24.1612H79.6422C79.7985 24.1612 79.8766 24.2385 79.8766 24.3931V25.0888ZM76.3617 18.4801C76.3617 18.6347 76.2836 18.712 76.1273 18.712H66.7543C66.598 18.712 66.5199 18.6347 66.5199 18.4801V17.7845C66.5199 17.6299 66.598 17.5526 66.7543 17.5526H76.1273C76.2836 17.5526 76.3617 17.6299 76.3617 17.7845V18.4801Z" stroke="url(#paint24_angular_1289_218)" stroke-width="2" mask="url(#path-4-outside-2_1289_218)"/>
<path d="M97.798 25.3438H96.6029C96.4467 25.3438 96.3139 25.2897 96.2046 25.1815L88.6827 17.7381C88.5733 17.6299 88.5968 17.5758 88.753 17.5758H92.1039C92.8537 17.5758 93.4942 17.313 94.0253 16.7874C94.5721 16.2618 94.8533 15.6279 94.8689 14.8859C94.8689 14.8705 94.8689 14.855 94.8689 14.8395C94.8689 14.3603 94.7361 13.912 94.4706 13.4946C94.205 13.0618 93.8457 12.7294 93.3927 12.4975C92.9552 12.2502 92.471 12.1265 91.9398 12.1265H84.91C84.7538 12.1265 84.621 12.0724 84.5117 11.9642L83.6681 11.1294C83.5587 11.0212 83.5822 10.9671 83.7384 10.9671H91.9398C93.0646 10.9671 94.0253 11.3458 94.8221 12.1033C95.6344 12.8608 96.0406 13.7806 96.0406 14.8627C96.0406 15.9294 95.65 16.8415 94.8689 17.599C94.1034 18.3564 93.1818 18.7352 92.1039 18.7352H91.354L91.518 18.8975L97.8683 25.1815C97.9777 25.2897 97.9542 25.3438 97.798 25.3438Z" stroke="url(#paint25_angular_1289_218)" stroke-width="2" mask="url(#path-4-outside-2_1289_218)"/>
<path d="M114.205 25.3438H113.01C112.854 25.3438 112.721 25.2897 112.612 25.1815L105.09 17.7381C104.981 17.6299 105.004 17.5758 105.16 17.5758H108.511C109.261 17.5758 109.902 17.313 110.433 16.7874C110.98 16.2618 111.261 15.6279 111.276 14.8859C111.276 14.8705 111.276 14.855 111.276 14.8395C111.276 14.3603 111.144 13.912 110.878 13.4946C110.612 13.0618 110.253 12.7294 109.8 12.4975C109.363 12.2502 108.878 12.1265 108.347 12.1265H101.317C101.161 12.1265 101.028 12.0724 100.919 11.9642L100.076 11.1294C99.9662 11.0212 99.9896 10.9671 100.146 10.9671H108.347C109.472 10.9671 110.433 11.3458 111.23 12.1033C112.042 12.8608 112.448 13.7806 112.448 14.8627C112.448 15.9294 112.057 16.8415 111.276 17.599C110.511 18.3564 109.589 18.7352 108.511 18.7352H107.761L107.925 18.8975L114.276 25.1815C114.385 25.2897 114.362 25.3438 114.205 25.3438Z" stroke="url(#paint26_angular_1289_218)" stroke-width="2" mask="url(#path-4-outside-2_1289_218)"/>
<path d="M132.019 11.199V21.2859C132.019 22.3989 131.613 23.3574 130.8 24.1612C130.004 24.9496 129.043 25.3438 127.918 25.3438H121.591C120.467 25.3438 119.498 24.9496 118.686 24.1612C117.889 23.3574 117.491 22.3989 117.491 21.2859V11.199C117.491 11.0444 117.569 10.9671 117.725 10.9671H118.428C118.584 10.9671 118.662 11.0444 118.662 11.199V21.2859C118.662 22.0897 118.943 22.7777 119.506 23.3496C120.084 23.9062 120.779 24.1844 121.591 24.1844H127.918C128.73 24.1844 129.418 23.9062 129.98 23.3496C130.558 22.7777 130.847 22.0897 130.847 21.2859V11.199C130.847 11.0444 130.925 10.9671 131.082 10.9671H131.785C131.941 10.9671 132.019 11.0444 132.019 11.199Z" stroke="url(#paint27_angular_1289_218)" stroke-width="2" mask="url(#path-4-outside-2_1289_218)"/>
<path d="M149.589 10.9671H150.526C150.682 10.9671 150.76 11.0444 150.76 11.199V25.112C150.76 25.2665 150.682 25.3438 150.526 25.3438H149.823C149.667 25.3438 149.589 25.2665 149.589 25.112V12.5903C149.589 12.4357 149.534 12.4125 149.425 12.5207L143.66 18.225C143.551 18.3332 143.442 18.3332 143.332 18.225L137.568 12.5207C137.458 12.4125 137.404 12.4357 137.404 12.5903V25.112C137.404 25.2665 137.326 25.3438 137.169 25.3438H136.467C136.31 25.3438 136.232 25.2665 136.232 25.112V18.1555V11.199C136.232 11.0444 136.31 10.9671 136.467 10.9671H137.404C137.56 10.9671 137.693 11.0212 137.802 11.1294L143.332 16.5787C143.442 16.7023 143.551 16.7023 143.66 16.5787L149.19 11.1294C149.3 11.0212 149.433 10.9671 149.589 10.9671Z" stroke="url(#paint28_angular_1289_218)" stroke-width="2" mask="url(#path-4-outside-2_1289_218)"/>
</g>
<defs>
<filter id="filter0_i_1289_218" x="13.875" y="3.95648" width="17.6453" height="36.0435" filterUnits="userSpaceOnUse" color-interpolation-filters="sRGB">
<feFlood flood-opacity="0" result="BackgroundImageFix"/>
<feBlend mode="normal" in="SourceGraphic" in2="BackgroundImageFix" result="shape"/>
<feColorMatrix in="SourceAlpha" type="matrix" values="0 0 0 0 0 0 0 0 0 0 0 0 0 0 0 0 0 0 127 0" result="hardAlpha"/>
<feOffset dy="4"/>
<feGaussianBlur stdDeviation="2"/>
<feComposite in2="hardAlpha" operator="arithmetic" k2="-1" k3="1"/>
<feColorMatrix type="matrix" values="0 0 0 0 0 0 0 0 0 0 0 0 0 0 0 0 0 0 0.25 0"/>
<feBlend mode="normal" in2="shape" result="effect1_innerShadow_1289_218"/>
</filter>
<filter id="filter1_i_1289_218" x="0" y="0" width="19.5308" height="37.1337" filterUnits="userSpaceOnUse" color-interpolation-filters="sRGB">
<feFlood flood-opacity="0" result="BackgroundImageFix"/>
<feBlend mode="normal" in="SourceGraphic" in2="BackgroundImageFix" result="shape"/>
<feColorMatrix in="SourceAlpha" type="matrix" values="0 0 0 0 0 0 0 0 0 0 0 0 0 0 0 0 0 0 127 0" result="hardAlpha"/>
<feOffset dy="4"/>
<feGaussianBlur stdDeviation="2"/>
<feComposite in2="hardAlpha" operator="arithmetic" k2="-1" k3="1"/>
<feColorMatrix type="matrix" values="0 0 0 0 0 0 0 0 0 0 0 0 0 0 0 0 0 0 0.25 0"/>
<feBlend mode="normal" in2="shape" result="effect1_innerShadow_1289_218"/>
</filter>
<filter id="filter2_i_1289_218" x="47.9194" y="9.94391" width="242.081" height="20.3999" filterUnits="userSpaceOnUse" color-interpolation-filters="sRGB">
<feFlood flood-opacity="0" result="BackgroundImageFix"/>
<feBlend mode="normal" in="SourceGraphic" in2="BackgroundImageFix" result="shape"/>
<feColorMatrix in="SourceAlpha" type="matrix" values="0 0 0 0 0 0 0 0 0 0 0 0 0 0 0 0 0 0 127 0" result="hardAlpha"/>
<feOffset dy="4"/>
<feGaussianBlur stdDeviation="2"/>
<feComposite in2="hardAlpha" operator="arithmetic" k2="-1" k3="1"/>
<feColorMatrix type="matrix" values="0 0 0 0 0 0 0 0 0 0 0 0 0 0 0 0 0 0 0.25 0"/>
<feBlend mode="normal" in2="shape" result="effect1_innerShadow_1289_218"/>
</filter>
<radialGradient id="paint0_angular_1289_218" cx="0" cy="0" r="1" gradientUnits="userSpaceOnUse" gradientTransform="translate(22.6976 19.9782) rotate(90) scale(16.0218 8.82265)">
<stop offset="0.166667" stop-color="#EEEEEE"/>
<stop offset="0.395833" stop-color="#9F9F9F"/>
<stop offset="0.635417" stop-color="#F3F3F3"/>
<stop offset="0.901064" stop-color="#ACACAC"/>
<stop offset="1" stop-color="#CACACA"/>
</radialGradient>
<radialGradient id="paint1_angular_1289_218" cx="0" cy="0" r="1" gradientUnits="userSpaceOnUse" gradientTransform="translate(9.76539 16.5668) rotate(90) scale(16.5668 9.76539)">
<stop offset="0.166667" stop-color="#FFF1D6"/>
<stop offset="0.395833" stop-color="#AE8625"/>
<stop offset="0.635417" stop-color="#FFF1D5"/>
<stop offset="0.895833" stop-color="#AE8625"/>
<stop offset="1" stop-color="#D9B373"/>
</radialGradient>
<radialGradient id="paint2_angular_1289_218" cx="0" cy="0" r="1" gradientUnits="userSpaceOnUse" gradientTransform="translate(9.76539 16.5668) rotate(90) scale(16.5668 9.76539)">
<stop offset="0.166667" stop-color="#FFF1D6"/>
<stop offset="0.395833" stop-color="#AE8625"/>
<stop offset="0.635417" stop-color="#FFF1D5"/>
<stop offset="0.895833" stop-color="#AE8625"/>
<stop offset="1" stop-color="#D9B373"/>
</radialGradient>
<radialGradient id="paint3_angular_1289_218" cx="0" cy="0" r="1" gradientUnits="userSpaceOnUse" gradientTransform="translate(227.845 18.1439) rotate(90) scale(7.19997 61.1547)">
<stop offset="0.166667" stop-color="#EEEEEE"/>
<stop offset="0.395833" stop-color="#9F9F9F"/>
<stop offset="0.635417" stop-color="#F3F3F3"/>
<stop offset="0.901064" stop-color="#ACACAC"/>
<stop offset="1" stop-color="#CACACA"/>
</radialGradient>
<radialGradient id="paint4_angular_1289_218" cx="0" cy="0" r="1" gradientUnits="userSpaceOnUse" gradientTransform="translate(227.845 18.1439) rotate(90) scale(7.19997 61.1547)">
<stop offset="0.166667" stop-color="#EEEEEE"/>
<stop offset="0.395833" stop-color="#9F9F9F"/>
<stop offset="0.635417" stop-color="#F3F3F3"/>
<stop offset="0.901064" stop-color="#ACACAC"/>
<stop offset="1" stop-color="#CACACA"/>
</radialGradient>
<radialGradient id="paint5_angular_1289_218" cx="0" cy="0" r="1" gradientUnits="userSpaceOnUse" gradientTransform="translate(227.845 18.1439) rotate(90) scale(7.19997 61.1547)">
<stop offset="0.166667" stop-color="#EEEEEE"/>
<stop offset="0.395833" stop-color="#9F9F9F"/>
<stop offset="0.635417" stop-color="#F3F3F3"/>
<stop offset="0.901064" stop-color="#ACACAC"/>
<stop offset="1" stop-color="#CACACA"/>
</radialGradient>
<radialGradient id="paint6_angular_1289_218" cx="0" cy="0" r="1" gradientUnits="userSpaceOnUse" gradientTransform="translate(227.845 18.1439) rotate(90) scale(7.19997 61.1547)">
<stop offset="0.166667" stop-color="#EEEEEE"/>
<stop offset="0.395833" stop-color="#9F9F9F"/>
<stop offset="0.635417" stop-color="#F3F3F3"/>
<stop offset="0.901064" stop-color="#ACACAC"/>
<stop offset="1" stop-color="#CACACA"/>
</radialGradient>
<radialGradient id="paint7_angular_1289_218" cx="0" cy="0" r="1" gradientUnits="userSpaceOnUse" gradientTransform="translate(227.845 18.1439) rotate(90) scale(7.19997 61.1547)">
<stop offset="0.166667" stop-color="#EEEEEE"/>
<stop offset="0.395833" stop-color="#9F9F9F"/>
<stop offset="0.635417" stop-color="#F3F3F3"/>
<stop offset="0.901064" stop-color="#ACACAC"/>
<stop offset="1" stop-color="#CACACA"/>
</radialGradient>
<radialGradient id="paint8_angular_1289_218" cx="0" cy="0" r="1" gradientUnits="userSpaceOnUse" gradientTransform="translate(227.845 18.1439) rotate(90) scale(7.19997 61.1547)">
<stop offset="0.166667" stop-color="#EEEEEE"/>
<stop offset="0.395833" stop-color="#9F9F9F"/>
<stop offset="0.635417" stop-color="#F3F3F3"/>
<stop offset="0.901064" stop-color="#ACACAC"/>
<stop offset="1" stop-color="#CACACA"/>
</radialGradient>
<radialGradient id="paint9_angular_1289_218" cx="0" cy="0" r="1" gradientUnits="userSpaceOnUse" gradientTransform="translate(227.845 18.1439) rotate(90) scale(7.19997 61.1547)">
<stop offset="0.166667" stop-color="#EEEEEE"/>
<stop offset="0.395833" stop-color="#9F9F9F"/>
<stop offset="0.635417" stop-color="#F3F3F3"/>
<stop offset="0.901064" stop-color="#ACACAC"/>
<stop offset="1" stop-color="#CACACA"/>
</radialGradient>
<radialGradient id="paint10_angular_1289_218" cx="0" cy="0" r="1" gradientUnits="userSpaceOnUse" gradientTransform="translate(227.845 18.1439) rotate(90) scale(7.19997 61.1547)">
<stop offset="0.166667" stop-color="#EEEEEE"/>
<stop offset="0.395833" stop-color="#9F9F9F"/>
<stop offset="0.635417" stop-color="#F3F3F3"/>
<stop offset="0.901064" stop-color="#ACACAC"/>
<stop offset="1" stop-color="#CACACA"/>
</radialGradient>
<radialGradient id="paint11_angular_1289_218" cx="0" cy="0" r="1" gradientUnits="userSpaceOnUse" gradientTransform="translate(227.845 18.1439) rotate(90) scale(7.19997 61.1547)">
<stop offset="0.166667" stop-color="#EEEEEE"/>
<stop offset="0.395833" stop-color="#9F9F9F"/>
<stop offset="0.635417" stop-color="#F3F3F3"/>
<stop offset="0.901064" stop-color="#ACACAC"/>
<stop offset="1" stop-color="#CACACA"/>
</radialGradient>
<radialGradient id="paint12_angular_1289_218" cx="0" cy="0" r="1" gradientUnits="userSpaceOnUse" gradientTransform="translate(227.845 18.1439) rotate(90) scale(7.19997 61.1547)">
<stop offset="0.166667" stop-color="#EEEEEE"/>
<stop offset="0.395833" stop-color="#9F9F9F"/>
<stop offset="0.635417" stop-color="#F3F3F3"/>
<stop offset="0.901064" stop-color="#ACACAC"/>
<stop offset="1" stop-color="#CACACA"/>
</radialGradient>
<radialGradient id="paint13_angular_1289_218" cx="0" cy="0" r="1" gradientUnits="userSpaceOnUse" gradientTransform="translate(227.845 18.1439) rotate(90) scale(7.19997 61.1547)">
<stop offset="0.166667" stop-color="#EEEEEE"/>
<stop offset="0.395833" stop-color="#9F9F9F"/>
<stop offset="0.635417" stop-color="#F3F3F3"/>
<stop offset="0.901064" stop-color="#ACACAC"/>
<stop offset="1" stop-color="#CACACA"/>
</radialGradient>
<radialGradient id="paint14_angular_1289_218" cx="0" cy="0" r="1" gradientUnits="userSpaceOnUse" gradientTransform="translate(227.845 18.1439) rotate(90) scale(7.19997 61.1547)">
<stop offset="0.166667" stop-color="#EEEEEE"/>
<stop offset="0.395833" stop-color="#9F9F9F"/>
<stop offset="0.635417" stop-color="#F3F3F3"/>
<stop offset="0.901064" stop-color="#ACACAC"/>
<stop offset="1" stop-color="#CACACA"/>
</radialGradient>
<radialGradient id="paint15_angular_1289_218" cx="0" cy="0" r="1" gradientUnits="userSpaceOnUse" gradientTransform="translate(227.845 18.1439) rotate(90) scale(7.19997 61.1547)">
<stop offset="0.166667" stop-color="#EEEEEE"/>
<stop offset="0.395833" stop-color="#9F9F9F"/>
<stop offset="0.635417" stop-color="#F3F3F3"/>
<stop offset="0.901064" stop-color="#ACACAC"/>
<stop offset="1" stop-color="#CACACA"/>
</radialGradient>
<radialGradient id="paint16_angular_1289_218" cx="0" cy="0" r="1" gradientUnits="userSpaceOnUse" gradientTransform="translate(227.845 18.1439) rotate(90) scale(7.19997 61.1547)">
<stop offset="0.166667" stop-color="#EEEEEE"/>
<stop offset="0.395833" stop-color="#9F9F9F"/>
<stop offset="0.635417" stop-color="#F3F3F3"/>
<stop offset="0.901064" stop-color="#ACACAC"/>
<stop offset="1" stop-color="#CACACA"/>
</radialGradient>
<radialGradient id="paint17_angular_1289_218" cx="0" cy="0" r="1" gradientUnits="userSpaceOnUse" gradientTransform="translate(99.8403 18.1439) rotate(90) scale(7.19997 50.9201)">
<stop offset="0.166667" stop-color="#FFF1D6"/>
<stop offset="0.395833" stop-color="#AE8625"/>
<stop offset="0.635417" stop-color="#FFF1D5"/>
<stop offset="0.895833" stop-color="#AE8625"/>
<stop offset="1" stop-color="#D9B373"/>
</radialGradient>
<radialGradient id="paint18_angular_1289_218" cx="0" cy="0" r="1" gradientUnits="userSpaceOnUse" gradientTransform="translate(99.8403 18.1439) rotate(90) scale(7.19997 50.9201)">
<stop offset="0.166667" stop-color="#FFF1D6"/>
<stop offset="0.395833" stop-color="#AE8625"/>
<stop offset="0.635417" stop-color="#FFF1D5"/>
<stop offset="0.895833" stop-color="#AE8625"/>
<stop offset="1" stop-color="#D9B373"/>
</radialGradient>
<radialGradient id="paint19_angular_1289_218" cx="0" cy="0" r="1" gradientUnits="userSpaceOnUse" gradientTransform="translate(99.8403 18.1439) rotate(90) scale(7.19997 50.9201)">
<stop offset="0.166667" stop-color="#FFF1D6"/>
<stop offset="0.395833" stop-color="#AE8625"/>
<stop offset="0.635417" stop-color="#FFF1D5"/>
<stop offset="0.895833" stop-color="#AE8625"/>
<stop offset="1" stop-color="#D9B373"/>
</radialGradient>
<radialGradient id="paint20_angular_1289_218" cx="0" cy="0" r="1" gradientUnits="userSpaceOnUse" gradientTransform="translate(99.8403 18.1439) rotate(90) scale(7.19997 50.9201)">
<stop offset="0.166667" stop-color="#FFF1D6"/>
<stop offset="0.395833" stop-color="#AE8625"/>
<stop offset="0.635417" stop-color="#FFF1D5"/>
<stop offset="0.895833" stop-color="#AE8625"/>
<stop offset="1" stop-color="#D9B373"/>
</radialGradient>
<radialGradient id="paint21_angular_1289_218" cx="0" cy="0" r="1" gradientUnits="userSpaceOnUse" gradientTransform="translate(99.8403 18.1439) rotate(90) scale(7.19997 50.9201)">
<stop offset="0.166667" stop-color="#FFF1D6"/>
<stop offset="0.395833" stop-color="#AE8625"/>
<stop offset="0.635417" stop-color="#FFF1D5"/>
<stop offset="0.895833" stop-color="#AE8625"/>
<stop offset="1" stop-color="#D9B373"/>
</radialGradient>
<radialGradient id="paint22_angular_1289_218" cx="0" cy="0" r="1" gradientUnits="userSpaceOnUse" gradientTransform="translate(99.8403 18.1439) rotate(90) scale(7.19997 50.9201)">
<stop offset="0.166667" stop-color="#FFF1D6"/>
<stop offset="0.395833" stop-color="#AE8625"/>
<stop offset="0.635417" stop-color="#FFF1D5"/>
<stop offset="0.895833" stop-color="#AE8625"/>
<stop offset="1" stop-color="#D9B373"/>
</radialGradient>
<radialGradient id="paint23_angular_1289_218" cx="0" cy="0" r="1" gradientUnits="userSpaceOnUse" gradientTransform="translate(99.8403 18.1439) rotate(90) scale(7.19997 50.9201)">
<stop offset="0.166667" stop-color="#FFF1D6"/>
<stop offset="0.395833" stop-color="#AE8625"/>
<stop offset="0.635417" stop-color="#FFF1D5"/>
<stop offset="0.895833" stop-color="#AE8625"/>
<stop offset="1" stop-color="#D9B373"/>
</radialGradient>
<radialGradient id="paint24_angular_1289_218" cx="0" cy="0" r="1" gradientUnits="userSpaceOnUse" gradientTransform="translate(99.8403 18.1439) rotate(90) scale(7.19997 50.9201)">
<stop offset="0.166667" stop-color="#FFF1D6"/>
<stop offset="0.395833" stop-color="#AE8625"/>
<stop offset="0.635417" stop-color="#FFF1D5"/>
<stop offset="0.895833" stop-color="#AE8625"/>
<stop offset="1" stop-color="#D9B373"/>
</radialGradient>
<radialGradient id="paint25_angular_1289_218" cx="0" cy="0" r="1" gradientUnits="userSpaceOnUse" gradientTransform="translate(99.8403 18.1439) rotate(90) scale(7.19997 50.9201)">
<stop offset="0.166667" stop-color="#FFF1D6"/>
<stop offset="0.395833" stop-color="#AE8625"/>
<stop offset="0.635417" stop-color="#FFF1D5"/>
<stop offset="0.895833" stop-color="#AE8625"/>
<stop offset="1" stop-color="#D9B373"/>
</radialGradient>
<radialGradient id="paint26_angular_1289_218" cx="0" cy="0" r="1" gradientUnits="userSpaceOnUse" gradientTransform="translate(99.8403 18.1439) rotate(90) scale(7.19997 50.9201)">
<stop offset="0.166667" stop-color="#FFF1D6"/>
<stop offset="0.395833" stop-color="#AE8625"/>
<stop offset="0.635417" stop-color="#FFF1D5"/>
<stop offset="0.895833" stop-color="#AE8625"/>
<stop offset="1" stop-color="#D9B373"/>
</radialGradient>
<radialGradient id="paint27_angular_1289_218" cx="0" cy="0" r="1" gradientUnits="userSpaceOnUse" gradientTransform="translate(99.8403 18.1439) rotate(90) scale(7.19997 50.9201)">
<stop offset="0.166667" stop-color="#FFF1D6"/>
<stop offset="0.395833" stop-color="#AE8625"/>
<stop offset="0.635417" stop-color="#FFF1D5"/>
<stop offset="0.895833" stop-color="#AE8625"/>
<stop offset="1" stop-color="#D9B373"/>
</radialGradient>
<radialGradient id="paint28_angular_1289_218" cx="0" cy="0" r="1" gradientUnits="userSpaceOnUse" gradientTransform="translate(99.8403 18.1439) rotate(90) scale(7.19997 50.9201)">
<stop offset="0.166667" stop-color="#FFF1D6"/>
<stop offset="0.395833" stop-color="#AE8625"/>
<stop offset="0.635417" stop-color="#FFF1D5"/>
<stop offset="0.895833" stop-color="#AE8625"/>
<stop offset="1" stop-color="#D9B373"/>
</radialGradient>
</defs>
</svg>
