<svg width="197" height="26" viewBox="0 0 197 26" fill="none" xmlns="http://www.w3.org/2000/svg">
<path fill-rule="evenodd" clip-rule="evenodd" d="M21.6022 6.47227L15.6861 3.05664L13.6506 4.23184L19.5667 7.64747V20.1197L21.6022 18.9445V6.47227ZM11.8187 24.593V5.21688L9.7832 6.48907V24.593L10.801 25.1806L11.8187 24.593ZM16.6021 9.30679L14.5666 8.19205V22.9573L16.6021 21.7821V9.30679Z" fill="black"/>
<path d="M12.8367 1.41152L10.8012 0.236328L0 6.47242V18.9446L2.0355 20.1198V13.0313L6.85582 10.3289V8.03282L2.0355 10.7328V7.64762L12.8367 1.41152Z" fill="black"/>
<path d="M6.83202 22.9574V13.688L4.79652 14.8028V21.7822L6.83202 22.9574Z" fill="black"/>
<path d="M35.3739 3.53552H32.9639V9.38818H33.8246V7.06433H35.3739C36.1313 7.06433 36.751 6.45324 36.751 5.68723V4.91261C36.751 4.1466 36.1313 3.53552 35.3739 3.53552ZM33.8246 6.20364V4.3962H35.3739C35.6665 4.3962 35.8903 4.63719 35.8903 4.91261V5.68723C35.8903 5.96265 35.6579 6.20364 35.3739 6.20364H33.8246ZM39.5018 3.53552C38.7444 3.53552 38.1247 4.15521 38.1247 4.91261V8.01109C38.1247 8.76849 38.7444 9.38818 39.5018 9.38818H40.5346C41.292 9.38818 41.9117 8.7771 41.9117 8.01109V4.91261C41.9117 4.1466 41.292 3.53552 40.5346 3.53552H39.5018ZM39.5018 8.5275C39.2178 8.5275 38.9854 8.29511 38.9854 8.01109V4.91261C38.9854 4.62859 39.2092 4.3962 39.5018 4.3962H40.5346C40.8273 4.3962 41.051 4.63719 41.051 4.91261V8.01109C41.051 8.2865 40.8186 8.5275 40.5346 8.5275H39.5018ZM43.2855 9.38818H44.1461L45.179 7.64099L46.2118 9.38818H47.0725V3.53552H46.2118V7.75288L45.4974 6.51349H44.8691L44.1461 7.75288V3.53552H43.2855V9.38818ZM52.2332 9.38818V8.5275H49.3069V6.72006H51.889V5.85937H49.3069V4.3962H52.2332V3.53552H48.4462V9.38818H52.2332ZM57.6522 9.38818L56.4042 7.01269C56.9809 6.84916 57.394 6.31553 57.394 5.68723V4.91261C57.394 4.1466 56.7743 3.53552 56.0169 3.53552H53.607V9.38818H54.4677V7.06433H55.4574L56.6796 9.38818H57.6522ZM56.0169 4.3962C56.3095 4.3962 56.5333 4.63719 56.5333 4.91261V5.68723C56.5333 5.96265 56.3009 6.20364 56.0169 6.20364H54.4677V4.3962H56.0169ZM62.5547 9.38818V8.5275H59.6284V6.72006H62.2105V5.85937H59.6284V4.3962H62.5547V3.53552H58.7677V9.38818H62.5547ZM66.3384 3.53552H63.9285V9.38818H66.3384C67.0958 9.38818 67.7155 8.7771 67.7155 8.01109V4.91261C67.7155 4.1466 67.0958 3.53552 66.3384 3.53552ZM64.7892 8.5275V4.3962H66.3384C66.631 4.3962 66.8548 4.63719 66.8548 4.91261V8.01109C66.8548 8.2865 66.6224 8.5275 66.3384 8.5275H64.7892ZM77.6153 6.24668C77.8218 6.00569 77.9509 5.68723 77.9509 5.34296V4.91261C77.9509 4.1466 77.3313 3.53552 76.5739 3.53552H74.25V9.38818H76.6599C77.4173 9.38818 78.037 8.7771 78.037 8.01109V7.23647C78.037 6.84916 77.8735 6.49628 77.6153 6.24668ZM76.5739 4.3962C76.8665 4.3962 77.0903 4.63719 77.0903 4.91261V5.34296C77.0903 5.61838 76.8579 5.85937 76.5739 5.85937H75.1107V4.3962H76.5739ZM75.1107 8.5275V6.72006H76.6599C76.9526 6.72006 77.1763 6.96105 77.1763 7.23647V8.01109C77.1763 8.2865 76.9439 8.5275 76.6599 8.5275H75.1107ZM80.8739 6.78891V9.38818H81.7346V6.78891L83.3699 3.53552H82.4404L81.3043 5.86798L80.1682 3.53552H79.2386L80.8739 6.78891Z" fill="black"/>
<mask id="path-4-outside-1_646_678" maskUnits="userSpaceOnUse" x="111.59" y="12.3232" width="85" height="12" fill="black">
<rect fill="white" x="111.59" y="12.3232" width="85" height="12"/>
<path d="M121.858 13.3392H122.338C122.444 13.3392 122.498 13.3925 122.498 13.4991V23.0915C122.498 23.1981 122.444 23.2514 122.338 23.2514H121.699C121.592 23.2514 121.501 23.2141 121.427 23.1395L113.501 14.4104C113.426 14.3358 113.389 14.3518 113.389 14.4583V23.0915C113.389 23.1981 113.336 23.2514 113.229 23.2514H112.75C112.643 23.2514 112.59 23.1981 112.59 23.0915V13.4991C112.59 13.3925 112.643 13.3392 112.75 13.3392H113.389C113.495 13.3392 113.586 13.3765 113.661 13.4511L121.587 22.1642C121.661 22.2495 121.699 22.2389 121.699 22.1323V13.4991C121.699 13.3925 121.752 13.3392 121.858 13.3392Z"/>
<path d="M126.649 14.1226C126.543 14.1226 126.452 14.0853 126.378 14.0107L125.802 13.4352C125.728 13.3605 125.744 13.3232 125.85 13.3232H134.719C134.826 13.3232 134.879 13.3765 134.879 13.4831V13.9627C134.879 14.0693 134.826 14.1226 134.719 14.1226H126.649ZM134.879 23.0755C134.879 23.1821 134.826 23.2354 134.719 23.2354H125.93C125.824 23.2354 125.77 23.1821 125.77 23.0755V22.5959C125.77 22.4893 125.824 22.436 125.93 22.436H134.719C134.826 22.436 134.879 22.4893 134.879 22.5959V23.0755ZM132.482 18.5191C132.482 18.6257 132.429 18.679 132.322 18.679H125.93C125.824 18.679 125.77 18.6257 125.77 18.5191V18.0395C125.77 17.9329 125.824 17.8796 125.93 17.8796H132.322C132.429 17.8796 132.482 17.9329 132.482 18.0395V18.5191Z"/>
<path d="M138.631 14.1386C138.525 14.1386 138.434 14.1013 138.36 14.0267L137.784 13.4511C137.71 13.3765 137.726 13.3392 137.832 13.3392H146.701C146.808 13.3392 146.861 13.3925 146.861 13.4991V13.9787C146.861 14.0853 146.808 14.1386 146.701 14.1386H142.706V23.0915C142.706 23.1981 142.653 23.2514 142.546 23.2514H142.067C141.96 23.2514 141.907 23.1981 141.907 23.0915V14.1386H138.631Z"/>
<path d="M159.249 13.4991V21.4128C159.249 21.9244 159.068 22.3614 158.705 22.7238C158.354 23.0755 157.922 23.2514 157.411 23.2514H155.733C155.179 23.2514 154.721 23.0436 154.359 22.6279C154.337 22.6066 154.316 22.5799 154.295 22.5479C154.274 22.5799 154.252 22.6066 154.231 22.6279C153.869 23.0436 153.411 23.2514 152.857 23.2514H151.179C150.667 23.2514 150.231 23.0755 149.868 22.7238C149.517 22.3614 149.341 21.9244 149.341 21.4128V13.4991C149.341 13.3925 149.394 13.3392 149.501 13.3392H149.98C150.087 13.3392 150.14 13.3925 150.14 13.4991V21.4128C150.14 21.7006 150.241 21.9458 150.444 22.1483C150.646 22.3508 150.891 22.452 151.179 22.452H152.857C153.144 22.452 153.389 22.3508 153.592 22.1483C153.794 21.9458 153.895 21.7006 153.895 21.4128V16.7765C153.895 16.6699 153.949 16.6166 154.055 16.6166H154.535C154.641 16.6166 154.694 16.6699 154.694 16.7765V21.4128C154.694 21.7006 154.796 21.9458 154.998 22.1483C155.2 22.3508 155.445 22.452 155.733 22.452H157.411C157.699 22.452 157.944 22.3508 158.146 22.1483C158.348 21.9458 158.45 21.7006 158.45 21.4128V13.4991C158.45 13.3925 158.503 13.3392 158.609 13.3392H159.089C159.195 13.3392 159.249 13.3925 159.249 13.4991Z"/>
<path d="M169.233 23.2354H164.918C164.151 23.2354 163.491 22.9636 162.937 22.42C162.394 21.8658 162.122 21.205 162.122 20.4376V16.121C162.122 15.3536 162.394 14.6982 162.937 14.1546C163.491 13.6004 164.151 13.3232 164.918 13.3232H169.233C170 13.3232 170.655 13.6004 171.199 14.1546C171.753 14.6982 172.03 15.3536 172.03 16.121V20.4376C172.03 21.205 171.753 21.8658 171.199 22.42C170.655 22.9636 170 23.2354 169.233 23.2354ZM164.918 14.1226C164.365 14.1226 163.89 14.3198 163.496 14.7141C163.113 15.0978 162.921 15.5668 162.921 16.121V20.4376C162.921 20.9918 163.113 21.4661 163.496 21.8605C163.89 22.2442 164.365 22.436 164.918 22.436H169.233C169.787 22.436 170.256 22.2442 170.639 21.8605C171.034 21.4661 171.231 20.9918 171.231 20.4376V16.121C171.231 15.5668 171.034 15.0978 170.639 14.7141C170.256 14.3198 169.787 14.1226 169.233 14.1226H164.918Z"/>
<path d="M183.852 23.2514H183.037C182.93 23.2514 182.84 23.2141 182.765 23.1395L177.636 18.0075C177.561 17.9329 177.577 17.8956 177.683 17.8956H179.969C180.48 17.8956 180.917 17.7144 181.279 17.3521C181.652 16.9897 181.844 16.5527 181.854 16.0411C181.854 16.0304 181.854 16.0198 181.854 16.0091C181.854 15.6787 181.764 15.3696 181.583 15.0819C181.402 14.7834 181.156 14.5543 180.848 14.3944C180.549 14.2239 180.219 14.1386 179.857 14.1386H175.063C174.956 14.1386 174.866 14.1013 174.791 14.0267L174.216 13.4511C174.141 13.3765 174.157 13.3392 174.264 13.3392H179.857C180.624 13.3392 181.279 13.6004 181.822 14.1226C182.376 14.6449 182.653 15.279 182.653 16.0251C182.653 16.7605 182.387 17.3894 181.854 17.9116C181.332 18.4339 180.704 18.695 179.969 18.695H179.457L179.569 18.8069L183.9 23.1395C183.974 23.2141 183.958 23.2514 183.852 23.2514Z"/>
<path d="M195.696 16.7126C195.504 17.0323 195.238 17.3094 194.897 17.5439C194.716 17.6825 194.514 17.7997 194.29 17.8956H194.306C194.519 17.9915 194.716 18.1035 194.897 18.2314C195.238 18.4765 195.504 18.7589 195.696 19.0787C195.899 19.4304 196 19.7928 196 20.1658V23.0915C196 23.1981 195.947 23.2514 195.84 23.2514H195.361C195.254 23.2514 195.201 23.1981 195.201 23.0915V20.1658C195.201 19.6755 194.945 19.2492 194.434 18.8868C193.88 18.4925 193.203 18.2953 192.404 18.2953H186.891V23.0915C186.891 23.1981 186.838 23.2514 186.731 23.2514H186.252C186.145 23.2514 186.092 23.1981 186.092 23.0915V13.4991C186.092 13.3925 186.145 13.3392 186.252 13.3392H186.731C186.838 13.3392 186.891 13.3925 186.891 13.4991V17.4959H192.404C193.203 17.4959 193.88 17.2988 194.434 16.9044C194.945 16.5314 195.201 16.0997 195.201 15.6094V13.4991C195.201 13.3925 195.254 13.3392 195.361 13.3392H195.84C195.947 13.3392 196 13.3925 196 13.4991V15.6094C196 15.9931 195.899 16.3608 195.696 16.7126Z"/>
</mask>
<path d="M121.858 13.3392H122.338C122.444 13.3392 122.498 13.3925 122.498 13.4991V23.0915C122.498 23.1981 122.444 23.2514 122.338 23.2514H121.699C121.592 23.2514 121.501 23.2141 121.427 23.1395L113.501 14.4104C113.426 14.3358 113.389 14.3518 113.389 14.4583V23.0915C113.389 23.1981 113.336 23.2514 113.229 23.2514H112.75C112.643 23.2514 112.59 23.1981 112.59 23.0915V13.4991C112.59 13.3925 112.643 13.3392 112.75 13.3392H113.389C113.495 13.3392 113.586 13.3765 113.661 13.4511L121.587 22.1642C121.661 22.2495 121.699 22.2389 121.699 22.1323V13.4991C121.699 13.3925 121.752 13.3392 121.858 13.3392Z" fill="black"/>
<path d="M126.649 14.1226C126.543 14.1226 126.452 14.0853 126.378 14.0107L125.802 13.4352C125.728 13.3605 125.744 13.3232 125.85 13.3232H134.719C134.826 13.3232 134.879 13.3765 134.879 13.4831V13.9627C134.879 14.0693 134.826 14.1226 134.719 14.1226H126.649ZM134.879 23.0755C134.879 23.1821 134.826 23.2354 134.719 23.2354H125.93C125.824 23.2354 125.77 23.1821 125.77 23.0755V22.5959C125.77 22.4893 125.824 22.436 125.93 22.436H134.719C134.826 22.436 134.879 22.4893 134.879 22.5959V23.0755ZM132.482 18.5191C132.482 18.6257 132.429 18.679 132.322 18.679H125.93C125.824 18.679 125.77 18.6257 125.77 18.5191V18.0395C125.77 17.9329 125.824 17.8796 125.93 17.8796H132.322C132.429 17.8796 132.482 17.9329 132.482 18.0395V18.5191Z" fill="black"/>
<path d="M138.631 14.1386C138.525 14.1386 138.434 14.1013 138.36 14.0267L137.784 13.4511C137.71 13.3765 137.726 13.3392 137.832 13.3392H146.701C146.808 13.3392 146.861 13.3925 146.861 13.4991V13.9787C146.861 14.0853 146.808 14.1386 146.701 14.1386H142.706V23.0915C142.706 23.1981 142.653 23.2514 142.546 23.2514H142.067C141.96 23.2514 141.907 23.1981 141.907 23.0915V14.1386H138.631Z" fill="black"/>
<path d="M159.249 13.4991V21.4128C159.249 21.9244 159.068 22.3614 158.705 22.7238C158.354 23.0755 157.922 23.2514 157.411 23.2514H155.733C155.179 23.2514 154.721 23.0436 154.359 22.6279C154.337 22.6066 154.316 22.5799 154.295 22.5479C154.274 22.5799 154.252 22.6066 154.231 22.6279C153.869 23.0436 153.411 23.2514 152.857 23.2514H151.179C150.667 23.2514 150.231 23.0755 149.868 22.7238C149.517 22.3614 149.341 21.9244 149.341 21.4128V13.4991C149.341 13.3925 149.394 13.3392 149.501 13.3392H149.98C150.087 13.3392 150.14 13.3925 150.14 13.4991V21.4128C150.14 21.7006 150.241 21.9458 150.444 22.1483C150.646 22.3508 150.891 22.452 151.179 22.452H152.857C153.144 22.452 153.389 22.3508 153.592 22.1483C153.794 21.9458 153.895 21.7006 153.895 21.4128V16.7765C153.895 16.6699 153.949 16.6166 154.055 16.6166H154.535C154.641 16.6166 154.694 16.6699 154.694 16.7765V21.4128C154.694 21.7006 154.796 21.9458 154.998 22.1483C155.2 22.3508 155.445 22.452 155.733 22.452H157.411C157.699 22.452 157.944 22.3508 158.146 22.1483C158.348 21.9458 158.45 21.7006 158.45 21.4128V13.4991C158.45 13.3925 158.503 13.3392 158.609 13.3392H159.089C159.195 13.3392 159.249 13.3925 159.249 13.4991Z" fill="black"/>
<path d="M169.233 23.2354H164.918C164.151 23.2354 163.491 22.9636 162.937 22.42C162.394 21.8658 162.122 21.205 162.122 20.4376V16.121C162.122 15.3536 162.394 14.6982 162.937 14.1546C163.491 13.6004 164.151 13.3232 164.918 13.3232H169.233C170 13.3232 170.655 13.6004 171.199 14.1546C171.753 14.6982 172.03 15.3536 172.03 16.121V20.4376C172.03 21.205 171.753 21.8658 171.199 22.42C170.655 22.9636 170 23.2354 169.233 23.2354ZM164.918 14.1226C164.365 14.1226 163.89 14.3198 163.496 14.7141C163.113 15.0978 162.921 15.5668 162.921 16.121V20.4376C162.921 20.9918 163.113 21.4661 163.496 21.8605C163.89 22.2442 164.365 22.436 164.918 22.436H169.233C169.787 22.436 170.256 22.2442 170.639 21.8605C171.034 21.4661 171.231 20.9918 171.231 20.4376V16.121C171.231 15.5668 171.034 15.0978 170.639 14.7141C170.256 14.3198 169.787 14.1226 169.233 14.1226H164.918Z" fill="black"/>
<path d="M183.852 23.2514H183.037C182.93 23.2514 182.84 23.2141 182.765 23.1395L177.636 18.0075C177.561 17.9329 177.577 17.8956 177.683 17.8956H179.969C180.48 17.8956 180.917 17.7144 181.279 17.3521C181.652 16.9897 181.844 16.5527 181.854 16.0411C181.854 16.0304 181.854 16.0198 181.854 16.0091C181.854 15.6787 181.764 15.3696 181.583 15.0819C181.402 14.7834 181.156 14.5543 180.848 14.3944C180.549 14.2239 180.219 14.1386 179.857 14.1386H175.063C174.956 14.1386 174.866 14.1013 174.791 14.0267L174.216 13.4511C174.141 13.3765 174.157 13.3392 174.264 13.3392H179.857C180.624 13.3392 181.279 13.6004 181.822 14.1226C182.376 14.6449 182.653 15.279 182.653 16.0251C182.653 16.7605 182.387 17.3894 181.854 17.9116C181.332 18.4339 180.704 18.695 179.969 18.695H179.457L179.569 18.8069L183.9 23.1395C183.974 23.2141 183.958 23.2514 183.852 23.2514Z" fill="black"/>
<path d="M195.696 16.7126C195.504 17.0323 195.238 17.3094 194.897 17.5439C194.716 17.6825 194.514 17.7997 194.29 17.8956H194.306C194.519 17.9915 194.716 18.1035 194.897 18.2314C195.238 18.4765 195.504 18.7589 195.696 19.0787C195.899 19.4304 196 19.7928 196 20.1658V23.0915C196 23.1981 195.947 23.2514 195.84 23.2514H195.361C195.254 23.2514 195.201 23.1981 195.201 23.0915V20.1658C195.201 19.6755 194.945 19.2492 194.434 18.8868C193.88 18.4925 193.203 18.2953 192.404 18.2953H186.891V23.0915C186.891 23.1981 186.838 23.2514 186.731 23.2514H186.252C186.145 23.2514 186.092 23.1981 186.092 23.0915V13.4991C186.092 13.3925 186.145 13.3392 186.252 13.3392H186.731C186.838 13.3392 186.891 13.3925 186.891 13.4991V17.4959H192.404C193.203 17.4959 193.88 17.2988 194.434 16.9044C194.945 16.5314 195.201 16.0997 195.201 15.6094V13.4991C195.201 13.3925 195.254 13.3392 195.361 13.3392H195.84C195.947 13.3392 196 13.3925 196 13.4991V15.6094C196 15.9931 195.899 16.3608 195.696 16.7126Z" fill="black"/>
<path d="M121.858 13.3392H122.338C122.444 13.3392 122.498 13.3925 122.498 13.4991V23.0915C122.498 23.1981 122.444 23.2514 122.338 23.2514H121.699C121.592 23.2514 121.501 23.2141 121.427 23.1395L113.501 14.4104C113.426 14.3358 113.389 14.3518 113.389 14.4583V23.0915C113.389 23.1981 113.336 23.2514 113.229 23.2514H112.75C112.643 23.2514 112.59 23.1981 112.59 23.0915V13.4991C112.59 13.3925 112.643 13.3392 112.75 13.3392H113.389C113.495 13.3392 113.586 13.3765 113.661 13.4511L121.587 22.1642C121.661 22.2495 121.699 22.2389 121.699 22.1323V13.4991C121.699 13.3925 121.752 13.3392 121.858 13.3392Z" stroke="black" stroke-width="0.717239" mask="url(#path-4-outside-1_646_678)"/>
<path d="M126.649 14.1226C126.543 14.1226 126.452 14.0853 126.378 14.0107L125.802 13.4352C125.728 13.3605 125.744 13.3232 125.85 13.3232H134.719C134.826 13.3232 134.879 13.3765 134.879 13.4831V13.9627C134.879 14.0693 134.826 14.1226 134.719 14.1226H126.649ZM134.879 23.0755C134.879 23.1821 134.826 23.2354 134.719 23.2354H125.93C125.824 23.2354 125.77 23.1821 125.77 23.0755V22.5959C125.77 22.4893 125.824 22.436 125.93 22.436H134.719C134.826 22.436 134.879 22.4893 134.879 22.5959V23.0755ZM132.482 18.5191C132.482 18.6257 132.429 18.679 132.322 18.679H125.93C125.824 18.679 125.77 18.6257 125.77 18.5191V18.0395C125.77 17.9329 125.824 17.8796 125.93 17.8796H132.322C132.429 17.8796 132.482 17.9329 132.482 18.0395V18.5191Z" stroke="black" stroke-width="0.717239" mask="url(#path-4-outside-1_646_678)"/>
<path d="M138.631 14.1386C138.525 14.1386 138.434 14.1013 138.36 14.0267L137.784 13.4511C137.71 13.3765 137.726 13.3392 137.832 13.3392H146.701C146.808 13.3392 146.861 13.3925 146.861 13.4991V13.9787C146.861 14.0853 146.808 14.1386 146.701 14.1386H142.706V23.0915C142.706 23.1981 142.653 23.2514 142.546 23.2514H142.067C141.96 23.2514 141.907 23.1981 141.907 23.0915V14.1386H138.631Z" stroke="black" stroke-width="0.717239" mask="url(#path-4-outside-1_646_678)"/>
<path d="M159.249 13.4991V21.4128C159.249 21.9244 159.068 22.3614 158.705 22.7238C158.354 23.0755 157.922 23.2514 157.411 23.2514H155.733C155.179 23.2514 154.721 23.0436 154.359 22.6279C154.337 22.6066 154.316 22.5799 154.295 22.5479C154.274 22.5799 154.252 22.6066 154.231 22.6279C153.869 23.0436 153.411 23.2514 152.857 23.2514H151.179C150.667 23.2514 150.231 23.0755 149.868 22.7238C149.517 22.3614 149.341 21.9244 149.341 21.4128V13.4991C149.341 13.3925 149.394 13.3392 149.501 13.3392H149.98C150.087 13.3392 150.14 13.3925 150.14 13.4991V21.4128C150.14 21.7006 150.241 21.9458 150.444 22.1483C150.646 22.3508 150.891 22.452 151.179 22.452H152.857C153.144 22.452 153.389 22.3508 153.592 22.1483C153.794 21.9458 153.895 21.7006 153.895 21.4128V16.7765C153.895 16.6699 153.949 16.6166 154.055 16.6166H154.535C154.641 16.6166 154.694 16.6699 154.694 16.7765V21.4128C154.694 21.7006 154.796 21.9458 154.998 22.1483C155.2 22.3508 155.445 22.452 155.733 22.452H157.411C157.699 22.452 157.944 22.3508 158.146 22.1483C158.348 21.9458 158.45 21.7006 158.45 21.4128V13.4991C158.45 13.3925 158.503 13.3392 158.609 13.3392H159.089C159.195 13.3392 159.249 13.3925 159.249 13.4991Z" stroke="black" stroke-width="0.717239" mask="url(#path-4-outside-1_646_678)"/>
<path d="M169.233 23.2354H164.918C164.151 23.2354 163.491 22.9636 162.937 22.42C162.394 21.8658 162.122 21.205 162.122 20.4376V16.121C162.122 15.3536 162.394 14.6982 162.937 14.1546C163.491 13.6004 164.151 13.3232 164.918 13.3232H169.233C170 13.3232 170.655 13.6004 171.199 14.1546C171.753 14.6982 172.03 15.3536 172.03 16.121V20.4376C172.03 21.205 171.753 21.8658 171.199 22.42C170.655 22.9636 170 23.2354 169.233 23.2354ZM164.918 14.1226C164.365 14.1226 163.89 14.3198 163.496 14.7141C163.113 15.0978 162.921 15.5668 162.921 16.121V20.4376C162.921 20.9918 163.113 21.4661 163.496 21.8605C163.89 22.2442 164.365 22.436 164.918 22.436H169.233C169.787 22.436 170.256 22.2442 170.639 21.8605C171.034 21.4661 171.231 20.9918 171.231 20.4376V16.121C171.231 15.5668 171.034 15.0978 170.639 14.7141C170.256 14.3198 169.787 14.1226 169.233 14.1226H164.918Z" stroke="black" stroke-width="0.717239" mask="url(#path-4-outside-1_646_678)"/>
<path d="M183.852 23.2514H183.037C182.93 23.2514 182.84 23.2141 182.765 23.1395L177.636 18.0075C177.561 17.9329 177.577 17.8956 177.683 17.8956H179.969C180.48 17.8956 180.917 17.7144 181.279 17.3521C181.652 16.9897 181.844 16.5527 181.854 16.0411C181.854 16.0304 181.854 16.0198 181.854 16.0091C181.854 15.6787 181.764 15.3696 181.583 15.0819C181.402 14.7834 181.156 14.5543 180.848 14.3944C180.549 14.2239 180.219 14.1386 179.857 14.1386H175.063C174.956 14.1386 174.866 14.1013 174.791 14.0267L174.216 13.4511C174.141 13.3765 174.157 13.3392 174.264 13.3392H179.857C180.624 13.3392 181.279 13.6004 181.822 14.1226C182.376 14.6449 182.653 15.279 182.653 16.0251C182.653 16.7605 182.387 17.3894 181.854 17.9116C181.332 18.4339 180.704 18.695 179.969 18.695H179.457L179.569 18.8069L183.9 23.1395C183.974 23.2141 183.958 23.2514 183.852 23.2514Z" stroke="black" stroke-width="0.717239" mask="url(#path-4-outside-1_646_678)"/>
<path d="M195.696 16.7126C195.504 17.0323 195.238 17.3094 194.897 17.5439C194.716 17.6825 194.514 17.7997 194.29 17.8956H194.306C194.519 17.9915 194.716 18.1035 194.897 18.2314C195.238 18.4765 195.504 18.7589 195.696 19.0787C195.899 19.4304 196 19.7928 196 20.1658V23.0915C196 23.1981 195.947 23.2514 195.84 23.2514H195.361C195.254 23.2514 195.201 23.1981 195.201 23.0915V20.1658C195.201 19.6755 194.945 19.2492 194.434 18.8868C193.88 18.4925 193.203 18.2953 192.404 18.2953H186.891V23.0915C186.891 23.1981 186.838 23.2514 186.731 23.2514H186.252C186.145 23.2514 186.092 23.1981 186.092 23.0915V13.4991C186.092 13.3925 186.145 13.3392 186.252 13.3392H186.731C186.838 13.3392 186.891 13.3925 186.891 13.4991V17.4959H192.404C193.203 17.4959 193.88 17.2988 194.434 16.9044C194.945 16.5314 195.201 16.0997 195.201 15.6094V13.4991C195.201 13.3925 195.254 13.3392 195.361 13.3392H195.84C195.947 13.3392 196 13.3925 196 13.4991V15.6094C196 15.9931 195.899 16.3608 195.696 16.7126Z" stroke="black" stroke-width="0.717239" mask="url(#path-4-outside-1_646_678)"/>
<mask id="path-5-outside-2_646_678" maskUnits="userSpaceOnUse" x="31.2754" y="12.3232" width="71" height="12" fill="black">
<rect fill="white" x="31.2754" y="12.3232" width="71" height="12"/>
<path d="M33.1684 14.1386C33.0619 14.1386 32.9713 14.1013 32.8967 14.0267L32.3215 13.4511C32.2469 13.3765 32.2629 13.3392 32.3694 13.3392H41.2384C41.3449 13.3392 41.3982 13.3925 41.3982 13.4991V13.9787C41.3982 14.0853 41.3449 14.1386 41.2384 14.1386H33.1684ZM38.7135 18.0555V18.5351C38.7135 18.6417 38.6602 18.695 38.5537 18.695H34.287C34.1805 18.695 34.0846 18.7323 33.9994 18.8069C33.9248 18.8815 33.8875 18.9774 33.8875 19.0947V23.0915C33.8875 23.1981 33.8342 23.2514 33.7277 23.2514H33.2483C33.1418 23.2514 33.0885 23.1981 33.0885 23.0915V19.0947C33.0885 18.7643 33.2057 18.4818 33.4401 18.2473C33.6744 18.0129 33.9567 17.8956 34.287 17.8956H38.5537C38.6602 17.8956 38.7135 17.9489 38.7135 18.0555Z"/>
<path d="M45.1566 14.1226C45.0501 14.1226 44.9595 14.0853 44.8849 14.0107L44.3097 13.4352C44.2351 13.3605 44.2511 13.3232 44.3576 13.3232H53.2266C53.3331 13.3232 53.3864 13.3765 53.3864 13.4831V13.9627C53.3864 14.0693 53.3331 14.1226 53.2266 14.1226H45.1566ZM53.3864 23.0755C53.3864 23.1821 53.3331 23.2354 53.2266 23.2354H44.4375C44.331 23.2354 44.2777 23.1821 44.2777 23.0755V22.5959C44.2777 22.4893 44.331 22.436 44.4375 22.436H53.2266C53.3331 22.436 53.3864 22.4893 53.3864 22.5959V23.0755ZM50.9893 18.5191C50.9893 18.6257 50.9361 18.679 50.8295 18.679H44.4375C44.331 18.679 44.2777 18.6257 44.2777 18.5191V18.0395C44.2777 17.9329 44.331 17.8796 44.4375 17.8796H50.8295C50.9361 17.8796 50.9893 17.9329 50.9893 18.0395V18.5191Z"/>
<path d="M65.608 23.2514H64.793C64.6865 23.2514 64.596 23.2141 64.5214 23.1395L59.3918 18.0075C59.3172 17.9329 59.3332 17.8956 59.4397 17.8956H61.7249C62.2362 17.8956 62.673 17.7144 63.0352 17.3521C63.4081 16.9897 63.5999 16.5527 63.6105 16.0411C63.6105 16.0304 63.6105 16.0198 63.6105 16.0091C63.6105 15.6787 63.52 15.3696 63.3389 15.0819C63.1577 14.7834 62.9127 14.5543 62.6038 14.3944C62.3055 14.2239 61.9752 14.1386 61.613 14.1386H56.819C56.7124 14.1386 56.6219 14.1013 56.5473 14.0267L55.972 13.4511C55.8974 13.3765 55.9134 13.3392 56.02 13.3392H61.613C62.38 13.3392 63.0352 13.6004 63.5786 14.1226C64.1325 14.6449 64.4095 15.279 64.4095 16.0251C64.4095 16.7605 64.1432 17.3894 63.6105 17.9116C63.0885 18.4339 62.4599 18.695 61.7249 18.695H61.2135L61.3254 18.8069L65.656 23.1395C65.7305 23.2141 65.7146 23.2514 65.608 23.2514Z"/>
<path d="M76.7972 23.2514H75.9822C75.8757 23.2514 75.7852 23.2141 75.7106 23.1395L70.581 18.0075C70.5064 17.9329 70.5224 17.8956 70.6289 17.8956H72.9141C73.4254 17.8956 73.8622 17.7144 74.2244 17.3521C74.5973 16.9897 74.7891 16.5527 74.7997 16.0411C74.7997 16.0304 74.7997 16.0198 74.7997 16.0091C74.7997 15.6787 74.7092 15.3696 74.5281 15.0819C74.3469 14.7834 74.1019 14.5543 73.793 14.3944C73.4947 14.2239 73.1644 14.1386 72.8022 14.1386H68.0082C67.9016 14.1386 67.8111 14.1013 67.7365 14.0267L67.1612 13.4511C67.0866 13.3765 67.1026 13.3392 67.2092 13.3392H72.8022C73.5692 13.3392 74.2244 13.6004 74.7678 14.1226C75.3217 14.6449 75.5987 15.279 75.5987 16.0251C75.5987 16.7605 75.3324 17.3894 74.7997 17.9116C74.2777 18.4339 73.6491 18.695 72.9141 18.695H72.4027L72.5146 18.8069L76.8452 23.1395C76.9197 23.2141 76.9038 23.2514 76.7972 23.2514Z"/>
<path d="M88.9452 13.4991V20.4536C88.9452 21.221 88.6682 21.8818 88.1143 22.436C87.5709 22.9796 86.9158 23.2514 86.1487 23.2514H81.8341C81.067 23.2514 80.4065 22.9796 79.8526 22.436C79.3092 21.8818 79.0376 21.221 79.0376 20.4536V13.4991C79.0376 13.3925 79.0908 13.3392 79.1974 13.3392H79.6768C79.7833 13.3392 79.8366 13.3925 79.8366 13.4991V20.4536C79.8366 21.0078 80.0283 21.4821 80.4119 21.8765C80.806 22.2602 81.2801 22.452 81.8341 22.452H86.1487C86.7027 22.452 87.1714 22.2602 87.555 21.8765C87.9491 21.4821 88.1462 21.0078 88.1462 20.4536V13.4991C88.1462 13.3925 88.1995 13.3392 88.306 13.3392H88.7854C88.892 13.3392 88.9452 13.3925 88.9452 13.4991Z"/>
<path d="M100.927 13.3392H101.566C101.673 13.3392 101.726 13.3925 101.726 13.4991V23.0915C101.726 23.1981 101.673 23.2514 101.566 23.2514H101.087C100.98 23.2514 100.927 23.1981 100.927 23.0915V14.4583C100.927 14.3518 100.89 14.3358 100.815 14.4104L96.8842 18.3433C96.8097 18.4179 96.7351 18.4179 96.6605 18.3433L92.7294 14.4104C92.6548 14.3358 92.6175 14.3518 92.6175 14.4583V23.0915C92.6175 23.1981 92.5643 23.2514 92.4577 23.2514H91.9783C91.8718 23.2514 91.8185 23.1981 91.8185 23.0915V18.2953V13.4991C91.8185 13.3925 91.8718 13.3392 91.9783 13.3392H92.6175C92.7241 13.3392 92.8146 13.3765 92.8892 13.4511L96.6605 17.2082C96.7351 17.2934 96.8097 17.2934 96.8842 17.2082L100.656 13.4511C100.73 13.3765 100.821 13.3392 100.927 13.3392Z"/>
</mask>
<path d="M33.1684 14.1386C33.0619 14.1386 32.9713 14.1013 32.8967 14.0267L32.3215 13.4511C32.2469 13.3765 32.2629 13.3392 32.3694 13.3392H41.2384C41.3449 13.3392 41.3982 13.3925 41.3982 13.4991V13.9787C41.3982 14.0853 41.3449 14.1386 41.2384 14.1386H33.1684ZM38.7135 18.0555V18.5351C38.7135 18.6417 38.6602 18.695 38.5537 18.695H34.287C34.1805 18.695 34.0846 18.7323 33.9994 18.8069C33.9248 18.8815 33.8875 18.9774 33.8875 19.0947V23.0915C33.8875 23.1981 33.8342 23.2514 33.7277 23.2514H33.2483C33.1418 23.2514 33.0885 23.1981 33.0885 23.0915V19.0947C33.0885 18.7643 33.2057 18.4818 33.4401 18.2473C33.6744 18.0129 33.9567 17.8956 34.287 17.8956H38.5537C38.6602 17.8956 38.7135 17.9489 38.7135 18.0555Z" fill="black"/>
<path d="M45.1566 14.1226C45.0501 14.1226 44.9595 14.0853 44.8849 14.0107L44.3097 13.4352C44.2351 13.3605 44.2511 13.3232 44.3576 13.3232H53.2266C53.3331 13.3232 53.3864 13.3765 53.3864 13.4831V13.9627C53.3864 14.0693 53.3331 14.1226 53.2266 14.1226H45.1566ZM53.3864 23.0755C53.3864 23.1821 53.3331 23.2354 53.2266 23.2354H44.4375C44.331 23.2354 44.2777 23.1821 44.2777 23.0755V22.5959C44.2777 22.4893 44.331 22.436 44.4375 22.436H53.2266C53.3331 22.436 53.3864 22.4893 53.3864 22.5959V23.0755ZM50.9893 18.5191C50.9893 18.6257 50.9361 18.679 50.8295 18.679H44.4375C44.331 18.679 44.2777 18.6257 44.2777 18.5191V18.0395C44.2777 17.9329 44.331 17.8796 44.4375 17.8796H50.8295C50.9361 17.8796 50.9893 17.9329 50.9893 18.0395V18.5191Z" fill="black"/>
<path d="M65.608 23.2514H64.793C64.6865 23.2514 64.596 23.2141 64.5214 23.1395L59.3918 18.0075C59.3172 17.9329 59.3332 17.8956 59.4397 17.8956H61.7249C62.2362 17.8956 62.673 17.7144 63.0352 17.3521C63.4081 16.9897 63.5999 16.5527 63.6105 16.0411C63.6105 16.0304 63.6105 16.0198 63.6105 16.0091C63.6105 15.6787 63.52 15.3696 63.3389 15.0819C63.1577 14.7834 62.9127 14.5543 62.6038 14.3944C62.3055 14.2239 61.9752 14.1386 61.613 14.1386H56.819C56.7124 14.1386 56.6219 14.1013 56.5473 14.0267L55.972 13.4511C55.8974 13.3765 55.9134 13.3392 56.02 13.3392H61.613C62.38 13.3392 63.0352 13.6004 63.5786 14.1226C64.1325 14.6449 64.4095 15.279 64.4095 16.0251C64.4095 16.7605 64.1432 17.3894 63.6105 17.9116C63.0885 18.4339 62.4599 18.695 61.7249 18.695H61.2135L61.3254 18.8069L65.656 23.1395C65.7305 23.2141 65.7146 23.2514 65.608 23.2514Z" fill="black"/>
<path d="M76.7972 23.2514H75.9822C75.8757 23.2514 75.7852 23.2141 75.7106 23.1395L70.581 18.0075C70.5064 17.9329 70.5224 17.8956 70.6289 17.8956H72.9141C73.4254 17.8956 73.8622 17.7144 74.2244 17.3521C74.5973 16.9897 74.7891 16.5527 74.7997 16.0411C74.7997 16.0304 74.7997 16.0198 74.7997 16.0091C74.7997 15.6787 74.7092 15.3696 74.5281 15.0819C74.3469 14.7834 74.1019 14.5543 73.793 14.3944C73.4947 14.2239 73.1644 14.1386 72.8022 14.1386H68.0082C67.9016 14.1386 67.8111 14.1013 67.7365 14.0267L67.1612 13.4511C67.0866 13.3765 67.1026 13.3392 67.2092 13.3392H72.8022C73.5692 13.3392 74.2244 13.6004 74.7678 14.1226C75.3217 14.6449 75.5987 15.279 75.5987 16.0251C75.5987 16.7605 75.3324 17.3894 74.7997 17.9116C74.2777 18.4339 73.6491 18.695 72.9141 18.695H72.4027L72.5146 18.8069L76.8452 23.1395C76.9197 23.2141 76.9038 23.2514 76.7972 23.2514Z" fill="black"/>
<path d="M88.9452 13.4991V20.4536C88.9452 21.221 88.6682 21.8818 88.1143 22.436C87.5709 22.9796 86.9158 23.2514 86.1487 23.2514H81.8341C81.067 23.2514 80.4065 22.9796 79.8526 22.436C79.3092 21.8818 79.0376 21.221 79.0376 20.4536V13.4991C79.0376 13.3925 79.0908 13.3392 79.1974 13.3392H79.6768C79.7833 13.3392 79.8366 13.3925 79.8366 13.4991V20.4536C79.8366 21.0078 80.0283 21.4821 80.4119 21.8765C80.806 22.2602 81.2801 22.452 81.8341 22.452H86.1487C86.7027 22.452 87.1714 22.2602 87.555 21.8765C87.9491 21.4821 88.1462 21.0078 88.1462 20.4536V13.4991C88.1462 13.3925 88.1995 13.3392 88.306 13.3392H88.7854C88.892 13.3392 88.9452 13.3925 88.9452 13.4991Z" fill="black"/>
<path d="M100.927 13.3392H101.566C101.673 13.3392 101.726 13.3925 101.726 13.4991V23.0915C101.726 23.1981 101.673 23.2514 101.566 23.2514H101.087C100.98 23.2514 100.927 23.1981 100.927 23.0915V14.4583C100.927 14.3518 100.89 14.3358 100.815 14.4104L96.8842 18.3433C96.8097 18.4179 96.7351 18.4179 96.6605 18.3433L92.7294 14.4104C92.6548 14.3358 92.6175 14.3518 92.6175 14.4583V23.0915C92.6175 23.1981 92.5643 23.2514 92.4577 23.2514H91.9783C91.8718 23.2514 91.8185 23.1981 91.8185 23.0915V18.2953V13.4991C91.8185 13.3925 91.8718 13.3392 91.9783 13.3392H92.6175C92.7241 13.3392 92.8146 13.3765 92.8892 13.4511L96.6605 17.2082C96.7351 17.2934 96.8097 17.2934 96.8842 17.2082L100.656 13.4511C100.73 13.3765 100.821 13.3392 100.927 13.3392Z" fill="black"/>
<path d="M33.1684 14.1386C33.0619 14.1386 32.9713 14.1013 32.8967 14.0267L32.3215 13.4511C32.2469 13.3765 32.2629 13.3392 32.3694 13.3392H41.2384C41.3449 13.3392 41.3982 13.3925 41.3982 13.4991V13.9787C41.3982 14.0853 41.3449 14.1386 41.2384 14.1386H33.1684ZM38.7135 18.0555V18.5351C38.7135 18.6417 38.6602 18.695 38.5537 18.695H34.287C34.1805 18.695 34.0846 18.7323 33.9994 18.8069C33.9248 18.8815 33.8875 18.9774 33.8875 19.0947V23.0915C33.8875 23.1981 33.8342 23.2514 33.7277 23.2514H33.2483C33.1418 23.2514 33.0885 23.1981 33.0885 23.0915V19.0947C33.0885 18.7643 33.2057 18.4818 33.4401 18.2473C33.6744 18.0129 33.9567 17.8956 34.287 17.8956H38.5537C38.6602 17.8956 38.7135 17.9489 38.7135 18.0555Z" stroke="black" stroke-width="0.717239" mask="url(#path-5-outside-2_646_678)"/>
<path d="M45.1566 14.1226C45.0501 14.1226 44.9595 14.0853 44.8849 14.0107L44.3097 13.4352C44.2351 13.3605 44.2511 13.3232 44.3576 13.3232H53.2266C53.3331 13.3232 53.3864 13.3765 53.3864 13.4831V13.9627C53.3864 14.0693 53.3331 14.1226 53.2266 14.1226H45.1566ZM53.3864 23.0755C53.3864 23.1821 53.3331 23.2354 53.2266 23.2354H44.4375C44.331 23.2354 44.2777 23.1821 44.2777 23.0755V22.5959C44.2777 22.4893 44.331 22.436 44.4375 22.436H53.2266C53.3331 22.436 53.3864 22.4893 53.3864 22.5959V23.0755ZM50.9893 18.5191C50.9893 18.6257 50.9361 18.679 50.8295 18.679H44.4375C44.331 18.679 44.2777 18.6257 44.2777 18.5191V18.0395C44.2777 17.9329 44.331 17.8796 44.4375 17.8796H50.8295C50.9361 17.8796 50.9893 17.9329 50.9893 18.0395V18.5191Z" stroke="black" stroke-width="0.717239" mask="url(#path-5-outside-2_646_678)"/>
<path d="M65.608 23.2514H64.793C64.6865 23.2514 64.596 23.2141 64.5214 23.1395L59.3918 18.0075C59.3172 17.9329 59.3332 17.8956 59.4397 17.8956H61.7249C62.2362 17.8956 62.673 17.7144 63.0352 17.3521C63.4081 16.9897 63.5999 16.5527 63.6105 16.0411C63.6105 16.0304 63.6105 16.0198 63.6105 16.0091C63.6105 15.6787 63.52 15.3696 63.3389 15.0819C63.1577 14.7834 62.9127 14.5543 62.6038 14.3944C62.3055 14.2239 61.9752 14.1386 61.613 14.1386H56.819C56.7124 14.1386 56.6219 14.1013 56.5473 14.0267L55.972 13.4511C55.8974 13.3765 55.9134 13.3392 56.02 13.3392H61.613C62.38 13.3392 63.0352 13.6004 63.5786 14.1226C64.1325 14.6449 64.4095 15.279 64.4095 16.0251C64.4095 16.7605 64.1432 17.3894 63.6105 17.9116C63.0885 18.4339 62.4599 18.695 61.7249 18.695H61.2135L61.3254 18.8069L65.656 23.1395C65.7305 23.2141 65.7146 23.2514 65.608 23.2514Z" stroke="black" stroke-width="0.717239" mask="url(#path-5-outside-2_646_678)"/>
<path d="M76.7972 23.2514H75.9822C75.8757 23.2514 75.7852 23.2141 75.7106 23.1395L70.581 18.0075C70.5064 17.9329 70.5224 17.8956 70.6289 17.8956H72.9141C73.4254 17.8956 73.8622 17.7144 74.2244 17.3521C74.5973 16.9897 74.7891 16.5527 74.7997 16.0411C74.7997 16.0304 74.7997 16.0198 74.7997 16.0091C74.7997 15.6787 74.7092 15.3696 74.5281 15.0819C74.3469 14.7834 74.1019 14.5543 73.793 14.3944C73.4947 14.2239 73.1644 14.1386 72.8022 14.1386H68.0082C67.9016 14.1386 67.8111 14.1013 67.7365 14.0267L67.1612 13.4511C67.0866 13.3765 67.1026 13.3392 67.2092 13.3392H72.8022C73.5692 13.3392 74.2244 13.6004 74.7678 14.1226C75.3217 14.6449 75.5987 15.279 75.5987 16.0251C75.5987 16.7605 75.3324 17.3894 74.7997 17.9116C74.2777 18.4339 73.6491 18.695 72.9141 18.695H72.4027L72.5146 18.8069L76.8452 23.1395C76.9197 23.2141 76.9038 23.2514 76.7972 23.2514Z" stroke="black" stroke-width="0.717239" mask="url(#path-5-outside-2_646_678)"/>
<path d="M88.9452 13.4991V20.4536C88.9452 21.221 88.6682 21.8818 88.1143 22.436C87.5709 22.9796 86.9158 23.2514 86.1487 23.2514H81.8341C81.067 23.2514 80.4065 22.9796 79.8526 22.436C79.3092 21.8818 79.0376 21.221 79.0376 20.4536V13.4991C79.0376 13.3925 79.0908 13.3392 79.1974 13.3392H79.6768C79.7833 13.3392 79.8366 13.3925 79.8366 13.4991V20.4536C79.8366 21.0078 80.0283 21.4821 80.4119 21.8765C80.806 22.2602 81.2801 22.452 81.8341 22.452H86.1487C86.7027 22.452 87.1714 22.2602 87.555 21.8765C87.9491 21.4821 88.1462 21.0078 88.1462 20.4536V13.4991C88.1462 13.3925 88.1995 13.3392 88.306 13.3392H88.7854C88.892 13.3392 88.9452 13.3925 88.9452 13.4991Z" stroke="black" stroke-width="0.717239" mask="url(#path-5-outside-2_646_678)"/>
<path d="M100.927 13.3392H101.566C101.673 13.3392 101.726 13.3925 101.726 13.4991V23.0915C101.726 23.1981 101.673 23.2514 101.566 23.2514H101.087C100.98 23.2514 100.927 23.1981 100.927 23.0915V14.4583C100.927 14.3518 100.89 14.3358 100.815 14.4104L96.8842 18.3433C96.8097 18.4179 96.7351 18.4179 96.6605 18.3433L92.7294 14.4104C92.6548 14.3358 92.6175 14.3518 92.6175 14.4583V23.0915C92.6175 23.1981 92.5643 23.2514 92.4577 23.2514H91.9783C91.8718 23.2514 91.8185 23.1981 91.8185 23.0915V18.2953V13.4991C91.8185 13.3925 91.8718 13.3392 91.9783 13.3392H92.6175C92.7241 13.3392 92.8146 13.3765 92.8892 13.4511L96.6605 17.2082C96.7351 17.2934 96.8097 17.2934 96.8842 17.2082L100.656 13.4511C100.73 13.3765 100.821 13.3392 100.927 13.3392Z" stroke="black" stroke-width="0.717239" mask="url(#path-5-outside-2_646_678)"/>
</svg>
