<svg width="26" height="26" viewBox="0 0 26 26" fill="none" xmlns="http://www.w3.org/2000/svg">
<path fill-rule="evenodd" clip-rule="evenodd" d="M12.5253 25.2524C19.4428 25.2524 25.0505 19.6447 25.0505 12.7272C25.0505 5.80965 19.4428 0.201904 12.5253 0.201904C5.60775 0.201904 0 5.80965 0 12.7272C0 19.6447 5.60775 25.2524 12.5253 25.2524ZM10.4352 12.4645C10.4352 11.372 11.3736 10.4805 12.5236 10.4805C13.6735 10.4805 14.612 11.372 14.612 12.4645C14.612 13.557 13.6735 14.4485 12.5236 14.4485C11.3736 14.4485 10.4352 13.557 10.4352 12.4645ZM18.7874 12.1639C18.7873 12.264 18.7872 12.3642 18.7872 12.4645C18.7872 12.5767 18.7874 12.6887 18.7875 12.8006C18.7886 13.5085 18.7897 14.2122 18.7464 14.9203C18.6979 15.8729 18.4707 16.7168 17.7359 17.4149C17.0027 18.1114 16.1128 18.3287 15.1102 18.3749C14.3523 18.4154 13.5993 18.4146 12.8415 18.4138C12.7361 18.4137 12.6307 18.4136 12.5251 18.4136C12.4198 18.4136 12.3145 18.4137 12.2093 18.4138C11.4526 18.4146 10.6994 18.4154 9.9401 18.3749C8.93742 18.3287 8.04911 18.1129 7.31434 17.4149C6.58113 16.7183 6.35239 15.8729 6.30383 14.9203C6.26118 14.2003 6.26202 13.4837 6.26286 12.7645C6.26297 12.6646 6.26309 12.5646 6.26309 12.4645C6.26309 12.3644 6.26297 12.2645 6.26286 12.1645C6.26202 11.4456 6.26118 10.73 6.30383 10.0087C6.35239 9.05613 6.57956 8.21222 7.31434 7.51417C8.04755 6.81761 8.93742 6.6003 9.9401 6.55416C10.698 6.51366 11.451 6.51445 12.2088 6.51524C12.3141 6.51536 12.4196 6.51547 12.5251 6.51547C12.6305 6.51547 12.7357 6.51536 12.8409 6.51525C13.5976 6.51445 14.3509 6.51366 15.1102 6.55416C16.1128 6.6003 17.0012 6.81612 17.7359 7.51417C18.4691 8.21073 18.6979 9.05613 18.7464 10.0087C18.7891 10.7287 18.7882 11.4441 18.7874 12.1639ZM9.3103 12.4645C9.3103 14.1538 10.7454 15.5172 12.5236 15.5172C14.3018 15.5172 15.7368 14.1538 15.7368 12.4645C15.7368 10.7752 14.3018 9.41185 12.5236 9.41185C10.7454 9.41185 9.3103 10.7752 9.3103 12.4645ZM15.118 9.28683C15.118 9.68125 15.4533 9.99976 15.8684 9.99976C15.967 9.99988 16.0647 9.98152 16.1558 9.94573C16.2469 9.90995 16.3297 9.85744 16.3994 9.79121C16.4691 9.72499 16.5243 9.64635 16.562 9.5598C16.5997 9.47325 16.619 9.38049 16.6189 9.28683C16.6189 8.89241 16.2836 8.5739 15.8684 8.5739C15.4533 8.5739 15.118 8.89241 15.118 9.28683Z" fill="#443065"/>
</svg>
