<svg width="27" height="26" viewBox="0 0 27 26" fill="none" xmlns="http://www.w3.org/2000/svg">
<path d="M13.2122 0.0505371C6.11958 0.0505371 0.373779 5.657 0.373779 12.5758C0.373779 19.4946 6.1204 25.101 13.2122 25.101C20.3047 25.101 26.0505 19.4946 26.0505 12.5758C26.0505 5.657 20.3039 0.0505371 13.2122 0.0505371ZM19.5179 8.63155L17.4107 18.3188C17.255 19.0057 16.8359 19.1722 16.2511 18.8489L13.0415 16.541L11.4935 17.9956C11.3228 18.1621 11.1779 18.3035 10.8466 18.3035L11.0744 15.1164L17.0223 9.87357C17.2815 9.65135 16.9651 9.52528 16.623 9.74751L9.27202 14.2623L6.10384 13.2974C5.41554 13.0857 5.3998 12.6259 6.24879 12.3027L18.6266 7.64569C19.2015 7.44367 19.7034 7.78225 19.517 8.63074L19.5179 8.63155Z" fill="#1B1B1B"/>
</svg>
