<svg width="27" height="26" viewBox="0 0 27 26" fill="none" xmlns="http://www.w3.org/2000/svg">
<path d="M13.2114 0.101074C6.1209 0.101074 0.373047 5.70873 0.373047 12.6263C0.373047 19.5439 6.1209 25.1516 13.2114 25.1516C20.302 25.1516 26.0498 19.5439 26.0498 12.6263C26.0498 5.70873 20.302 0.101074 13.2114 0.101074ZM18.4337 10.3613C18.4391 10.4683 18.4404 10.5753 18.4404 10.6797C18.4404 13.9415 15.8981 17.7004 11.2469 17.7004C9.87251 17.7026 8.52671 17.3175 7.3713 16.5913C7.56789 16.6148 7.76983 16.624 7.97444 16.624C9.15932 16.624 10.2492 16.2312 11.1145 15.5685C10.5872 15.5584 10.0763 15.388 9.65294 15.0812C9.22959 14.7743 8.91492 14.3463 8.75277 13.8567C9.13144 13.9269 9.52153 13.9122 9.89351 13.8136C9.3212 13.7007 8.80652 13.3982 8.43677 12.9573C8.06701 12.5164 7.86492 11.9643 7.86478 11.3947V11.3647C8.2058 11.5486 8.5963 11.6608 9.01087 11.6739C8.47433 11.3254 8.09451 10.7902 7.94909 10.1776C7.80367 9.56494 7.90363 8.92127 8.22853 8.37818C8.8637 9.14013 9.65581 9.76345 10.5536 10.2078C11.4513 10.6521 12.4347 10.9076 13.4401 10.9576C13.3123 10.4283 13.3673 9.8726 13.5966 9.37694C13.8259 8.88128 14.2166 8.47341 14.708 8.21674C15.1994 7.96007 15.764 7.86898 16.3139 7.95763C16.8638 8.04629 17.3683 8.30971 17.749 8.70696C18.3149 8.59773 18.8576 8.39521 19.3538 8.1081C19.1652 8.67974 18.7703 9.16515 18.2425 9.47414C18.7438 9.41523 19.2333 9.28375 19.6948 9.08403C19.3558 9.57968 18.9287 10.0122 18.4337 10.3613Z" fill="#443065"/>
</svg>
