<svg width="16" height="17" viewBox="0 0 16 17" fill="none" xmlns="http://www.w3.org/2000/svg">
<path d="M15.7887 10.47L14.5532 9.42643C14.6116 9.07237 14.6418 8.71085 14.6418 8.34934C14.6418 7.98782 14.6116 7.62631 14.5532 7.27224L15.7887 6.22869C15.8819 6.14988 15.9486 6.04491 15.98 5.92774C16.0113 5.81057 16.0058 5.68675 15.9642 5.57275L15.9472 5.5243C15.607 4.58515 15.0977 3.71455 14.4438 2.95455L14.4098 2.91542C14.3305 2.82327 14.2247 2.75704 14.1066 2.72543C13.9884 2.69383 13.8632 2.69835 13.7477 2.73839L12.2141 3.27694C11.6482 2.81852 11.0163 2.457 10.3334 2.20357L10.0373 0.619608C10.0149 0.500424 9.95639 0.390777 9.86946 0.305234C9.78253 0.219692 9.67131 0.162303 9.55058 0.140693L9.49965 0.131376C8.51686 -0.0437919 7.48314 -0.0437919 6.50035 0.131376L6.44942 0.140693C6.32869 0.162303 6.21747 0.219692 6.13054 0.305234C6.04361 0.390777 5.98509 0.500424 5.96275 0.619608L5.6647 2.21102C4.98729 2.46451 4.35646 2.82583 3.79722 3.28066L2.2523 2.73839C2.13679 2.69803 2.01159 2.69335 1.89332 2.72497C1.77506 2.75659 1.66933 2.82302 1.59019 2.91542L1.55624 2.95455C0.903085 3.71509 0.393828 4.58554 0.0528215 5.5243L0.0358444 5.57275C-0.0490412 5.80568 0.0207537 6.06657 0.211275 6.22869L1.46192 7.28342C1.40345 7.63376 1.37515 7.99155 1.37515 8.34747C1.37515 8.70526 1.40345 9.06305 1.46192 9.41152L0.211275 10.4663C0.118081 10.5451 0.0513812 10.65 0.0200443 10.7672C-0.0112925 10.8844 -0.00578166 11.0082 0.0358444 11.1222L0.0528215 11.1707C0.39425 12.1098 0.899791 12.9764 1.55624 13.7404L1.59019 13.7795C1.66952 13.8717 1.77525 13.9379 1.89345 13.9695C2.01164 14.0011 2.13676 13.9966 2.2523 13.9566L3.79722 13.4143C4.35935 13.8708 4.9875 14.2324 5.6647 14.4839L5.96275 16.0753C5.98509 16.1945 6.04361 16.3042 6.13054 16.3897C6.21747 16.4753 6.32869 16.5326 6.44942 16.5543L6.50035 16.5636C7.49217 16.7397 8.50783 16.7397 9.49965 16.5636L9.55058 16.5543C9.67131 16.5326 9.78253 16.4753 9.86946 16.3897C9.95639 16.3042 10.0149 16.1945 10.0373 16.0753L10.3334 14.4914C11.016 14.2386 11.6515 13.8759 12.2141 13.418L13.7477 13.9566C13.8632 13.9969 13.9884 14.0016 14.1067 13.97C14.2249 13.9384 14.3307 13.8719 14.4098 13.7795L14.4438 13.7404C15.1002 12.9745 15.6058 12.1098 15.9472 11.1707L15.9642 11.1222C16.049 10.893 15.9792 10.6321 15.7887 10.47ZM13.2139 7.49213C13.261 7.77352 13.2855 8.06236 13.2855 8.3512C13.2855 8.64004 13.261 8.92888 13.2139 9.21027L13.0894 9.95752L14.4985 11.1483C14.2848 11.6345 14.0152 12.0947 13.6949 12.5198L11.9444 11.9067L11.352 12.3875C10.9012 12.7527 10.3994 13.0397 9.85616 13.241L9.13747 13.5075L8.79981 15.315C8.26705 15.3747 7.72918 15.3747 7.19642 15.315L6.85876 13.5037L6.14572 13.2335C5.60811 13.0323 5.10823 12.7453 4.66117 12.3819L4.06885 11.8993L2.30701 12.5179C1.98633 12.0912 1.71847 11.6309 1.50342 11.1464L2.92761 9.94448L2.805 9.19909C2.75973 8.92143 2.73521 8.63445 2.73521 8.3512C2.73521 8.06609 2.75784 7.78097 2.805 7.50332L2.92761 6.75792L1.50342 5.55598C1.71658 5.06961 1.98633 4.61119 2.30701 4.18445L4.06885 4.80313L4.66117 4.32049C5.10823 3.95711 5.60811 3.67013 6.14572 3.46887L6.86065 3.2024L7.1983 1.39109C7.72837 1.33146 8.26975 1.33146 8.8017 1.39109L9.13935 3.19867L9.85805 3.46515C10.3994 3.6664 10.9031 3.95338 11.3539 4.31862L11.9462 4.7994L13.6968 4.18632C14.0174 4.61305 14.2853 5.07333 14.5004 5.55784L13.0912 6.7486L13.2139 7.49213ZM8.00189 4.88512C6.16836 4.88512 4.68192 6.35355 4.68192 8.16485C4.68192 9.97616 6.16836 11.4446 8.00189 11.4446C9.83542 11.4446 11.3219 9.97616 11.3219 8.16485C11.3219 6.35355 9.83542 4.88512 8.00189 4.88512ZM9.49587 9.64073C9.29992 9.83486 9.06705 9.98881 8.81066 10.0937C8.55426 10.1986 8.2794 10.2524 8.00189 10.252C7.43787 10.252 6.90781 10.0339 6.5079 9.64073C6.31139 9.44716 6.15556 9.21711 6.04937 8.96382C5.94319 8.71053 5.88875 8.439 5.88918 8.16485C5.88918 7.60767 6.10988 7.08403 6.5079 6.68897C6.90781 6.29391 7.43787 6.07775 8.00189 6.07775C8.5659 6.07775 9.09597 6.29391 9.49587 6.68897C9.69239 6.88255 9.84822 7.1126 9.9544 7.36589C10.0606 7.61917 10.115 7.8907 10.1146 8.16485C10.1146 8.72203 9.89389 9.24567 9.49587 9.64073Z" fill="black"/>
</svg>
