<svg width="26" height="26" viewBox="0 0 26 26" fill="none" xmlns="http://www.w3.org/2000/svg">
<path fill-rule="evenodd" clip-rule="evenodd" d="M12.5253 25.2524C19.4428 25.2524 25.0505 19.6447 25.0505 12.7272C25.0505 5.80965 19.4428 0.201904 12.5253 0.201904C5.60775 0.201904 0 5.80965 0 12.7272C0 19.6447 5.60775 25.2524 12.5253 25.2524ZM14.6749 7.09264C15.7489 7.27426 16.776 7.59365 17.7342 8.02577C17.7425 8.0291 17.7494 8.03533 17.7536 8.04331C19.4514 10.4995 20.2893 13.2713 19.9762 16.4615C19.9755 16.4683 19.9733 16.4748 19.9698 16.4806C19.9664 16.4864 19.9617 16.4915 19.9562 16.4953C18.8174 17.325 17.5465 17.9562 16.1973 18.3622C16.1878 18.3651 16.1777 18.3649 16.1683 18.3618C16.1588 18.3586 16.1506 18.3527 16.1447 18.3447C15.861 17.9558 15.603 17.5462 15.3776 17.116C15.3745 17.11 15.3727 17.1035 15.3724 17.0968C15.372 17.0902 15.3731 17.0835 15.3755 17.0773C15.3779 17.0711 15.3817 17.0654 15.3864 17.0608C15.3912 17.0561 15.3969 17.0525 15.4032 17.0502C15.8122 16.8987 16.2017 16.7164 16.5762 16.501C16.5829 16.497 16.5885 16.4915 16.5925 16.4848C16.5965 16.4781 16.5988 16.4706 16.5991 16.4629C16.5995 16.4551 16.598 16.4474 16.5946 16.4404C16.5913 16.4334 16.5862 16.4273 16.58 16.4227C16.5004 16.3645 16.4222 16.3037 16.347 16.2423C16.3401 16.2369 16.3318 16.2334 16.3231 16.2324C16.3143 16.2314 16.3055 16.2329 16.2975 16.2367C13.867 17.3414 11.2035 17.3414 8.74418 16.2367C8.73626 16.2331 8.72749 16.2318 8.71887 16.2329C8.71024 16.234 8.7021 16.2375 8.69533 16.243C8.62018 16.3037 8.54127 16.3645 8.46236 16.4227C8.45615 16.4274 8.45121 16.4335 8.44797 16.4406C8.44472 16.4477 8.44329 16.4554 8.44378 16.4632C8.44428 16.471 8.44669 16.4785 8.45081 16.4851C8.45493 16.4917 8.46062 16.4971 8.46737 16.501C8.84318 16.7146 9.23517 16.8985 9.63974 17.0508C9.646 17.053 9.65171 17.0566 9.65649 17.0612C9.66127 17.0658 9.665 17.0714 9.66743 17.0775C9.66987 17.0837 9.67095 17.0904 9.6706 17.097C9.67025 17.1036 9.66848 17.1101 9.66541 17.116C9.44428 17.5465 9.18744 17.9577 8.89761 18.3453C8.8915 18.353 8.88321 18.3587 8.87382 18.3616C8.86444 18.3645 8.8544 18.3645 8.84501 18.3616C7.49813 17.9544 6.22935 17.3235 5.09182 16.4953C5.08641 16.4912 5.0819 16.486 5.07857 16.4801C5.07523 16.4742 5.07313 16.4677 5.0724 16.4609C4.81 13.7016 5.3442 10.9072 7.29313 8.04205C7.29793 8.03451 7.30492 8.0286 7.31317 8.02515C8.27198 7.5924 9.29905 7.273 10.3725 7.09139C10.3822 7.08985 10.3921 7.09131 10.4009 7.09556C10.4098 7.09981 10.4171 7.10666 10.4219 7.11519C10.5649 7.36458 10.6939 7.62174 10.8083 7.88549C11.9475 7.71529 13.1055 7.71529 14.2446 7.88549C14.3474 7.64751 14.4939 7.34628 14.6254 7.11519C14.6303 7.10676 14.6377 7.10007 14.6466 7.09603C14.6554 7.09199 14.6653 7.0908 14.6749 7.09264ZM8.68218 13.2901C8.68218 14.1112 9.29279 14.7806 10.033 14.7806C10.7852 14.7806 11.3839 14.1118 11.3839 13.2901C11.3958 12.4741 10.7908 11.7996 10.033 11.7996C9.28089 11.7996 8.68218 12.4685 8.68218 13.2901ZM13.6766 13.2901C13.6766 14.1112 14.2866 14.7806 15.0275 14.7806C15.7859 14.7806 16.3783 14.1118 16.3783 13.2901C16.3902 12.4741 15.7852 11.7996 15.0275 11.7996C14.2747 11.7996 13.6766 12.4685 13.6766 13.2901Z" fill="#443065"/>
</svg>
