<svg width="16" height="16" viewBox="0 0 16 16" fill="none" xmlns="http://www.w3.org/2000/svg">
<path d="M8 0C3.58175 0 0 3.58175 0 8C0 12.4183 3.58175 16 8 16C12.4183 16 16 12.4183 16 8C16 3.58175 12.4183 0 8 0ZM10 1.2965C12.2535 1.96825 14.0257 3.7465 14.6985 5.99998H11.4552C11.1044 5.39739 10.6029 4.89634 10 4.54598V1.2965ZM10.9943 8.00325C10.9943 9.6585 9.65376 11.0002 8.00002 11.0002C6.34627 11.0002 5.00577 9.6585 5.00577 8.00325C5.00577 6.348 6.34652 5.00602 8.00002 5.00602C9.65351 5.00602 10.9943 6.34802 10.9943 8.00325ZM7.00002 1.077C7.32677 1.03025 7.66027 1.00475 8.00002 1.00475C8.3395 1.00475 8.67327 1.03025 9.00002 1.077V4.1365C8.68002 4.05375 8.34601 4.00525 8.00002 4.00525C7.65402 4.00525 7.32027 4.05375 7.00002 4.1365V1.077ZM6.00002 1.2965V4.546C5.39752 4.89575 4.89502 5.39825 4.54477 6H1.30152C1.97402 3.7465 3.74652 1.96827 6.00002 1.2965ZM1.00477 8.00248C1.00477 7.66148 1.03375 7.32797 1.08102 6.99997H4.13402C4.05102 7.32047 4.00527 7.65595 4.00527 8.00272C4.00527 8.34747 4.05077 8.68123 4.13277 8.99998H1.08027C1.03378 8.67373 1.00477 8.34148 1.00477 8.00248ZM6 14.7082C3.74475 14.0362 1.97177 12.2555 1.30002 9.99997H4.54177C4.89227 10.604 5.39575 11.1085 6 11.4592V14.7082V14.7082ZM9.00002 14.9277C8.67327 14.9745 8.3395 15 8.00002 15C7.66027 15 7.32677 14.9742 7.00002 14.9277V11.8687C7.32027 11.9515 7.65402 12 8.00002 12C8.34601 12 8.68002 11.9515 9.00002 11.8687V14.9277ZM10 14.7082V11.4592C10.604 11.1085 11.1078 10.604 11.458 9.99997H14.6998C14.028 12.2552 12.255 14.0362 10 14.7082L10 14.7082ZM11.8673 8.99997C11.9493 8.68122 11.9948 8.34747 11.9948 8.0027C11.9948 7.65594 11.949 7.32045 11.8658 6.99995H14.919C14.966 7.32795 14.9953 7.66145 14.9953 8.00245C14.9953 8.34147 14.9665 8.67397 14.9198 8.99997H11.8673Z" fill="white"/>
</svg>
