<svg width="398" height="402" viewBox="0 0 398 402" fill="none" xmlns="http://www.w3.org/2000/svg">
<path d="M377.357 1H19.8915C5.2101 1 1.17992 13.2355 1 19.3533V296.769C1 308.645 13.4144 314.043 19.3517 318.361C24.1016 321.816 23.13 324.78 23.13 335.095V358.356C23.13 372.148 31.9913 376.169 40.942 376.169H170.108C173.887 376.169 185.222 377.249 188.46 388.585C191.051 397.653 201.055 400.64 205.732 401H289.934C301.269 401 302.889 395.062 308.826 385.346C313.576 377.573 321.24 375.989 324.479 376.169H374.676C394.023 376.169 397.576 362.761 396.93 355.117L396.916 354.946C396.859 354.286 396.806 353.661 396.806 352.992V19.3533C396.806 7.52852 385.899 2.47338 379.532 1.18882C378.816 1.04435 378.088 1 377.357 1Z" fill="#272B30" stroke="url(#paint0_angular_1494_325)"/>
<defs>
<radialGradient id="paint0_angular_1494_325" cx="0" cy="0" r="1" gradientUnits="userSpaceOnUse" gradientTransform="translate(245.335 166.759) rotate(90) scale(165.759 463.398)">
<stop offset="0.166667" stop-color="#D7D7D7"/>
<stop offset="0.395833" stop-color="#434343"/>
<stop offset="0.635417" stop-color="#DCDCDC"/>
<stop offset="0.895833" stop-color="#434343"/>
</radialGradient>
</defs>
</svg>
