<svg width="29" height="29" viewBox="0 0 29 29" fill="none" xmlns="http://www.w3.org/2000/svg">
<path d="M0 14.5C0 22.5078 6.49224 29 14.5 29C22.5078 29 29 22.5078 29 14.5C29 6.49224 22.5078 0 14.5 0C6.49224 0 0 6.49224 0 14.5ZM14.8242 8.13115C14.9282 8.23432 15.0108 8.35696 15.0675 8.49208C15.1241 8.6272 15.1535 8.77214 15.1541 8.91864C15.1547 9.06514 15.1264 9.21031 15.0708 9.34588C15.0153 9.48144 14.9336 9.60474 14.8304 9.70873L11.1831 13.3846H20.4952C20.791 13.3846 21.0747 13.5021 21.2839 13.7113C21.4931 13.9205 21.6106 14.2042 21.6106 14.5C21.6106 14.7958 21.4931 15.0795 21.2839 15.2887C21.0747 15.4979 20.791 15.6154 20.4952 15.6154H11.1831L14.8304 19.2913C14.9336 19.3954 15.0153 19.5188 15.0708 19.6544C15.1262 19.79 15.1545 19.9353 15.1538 20.0819C15.1532 20.2284 15.1237 20.3734 15.067 20.5086C15.0103 20.6437 14.9276 20.7664 14.8235 20.8695C14.7194 20.9727 14.596 21.0544 14.4603 21.1099C14.3247 21.1653 14.1794 21.1936 14.0329 21.1929C13.8863 21.1923 13.7413 21.1628 13.6062 21.1061C13.471 21.0494 13.3484 20.9667 13.2452 20.8626L7.71079 15.2856C7.50348 15.0767 7.38714 14.7943 7.38714 14.5C7.38714 14.2057 7.50348 13.9233 7.71079 13.7143L13.2452 8.13743C13.3484 8.03321 13.4711 7.95036 13.6064 7.89363C13.7416 7.83689 13.8867 7.80739 14.0334 7.80681C14.18 7.80623 14.3254 7.83457 14.4611 7.89023C14.5968 7.94588 14.7201 8.02775 14.8242 8.13115Z" fill="black"/>
</svg>
