<svg width="311" height="311" viewBox="0 0 311 311" fill="none" xmlns="http://www.w3.org/2000/svg">
<path d="M294.432 1H15.7411C4.28516 1 1.14039 10.5433 1 15.3149V228.704C1 237.966 10.687 242.177 15.3199 245.545C19.0262 248.239 18.2681 250.551 18.2681 258.597V276.739C18.2681 287.497 25.1826 290.633 32.1669 290.633H132.956C135.904 290.633 144.749 291.475 147.276 300.316C149.297 307.39 157.103 309.719 160.753 310H226.456C235.301 310 236.565 305.369 241.198 297.79C244.904 291.727 250.885 290.492 253.412 290.633H292.581C307.475 290.633 310.373 280.454 309.964 274.455C309.915 273.73 309.849 273.049 309.849 272.322V15.3149C309.849 6.23609 301.602 2.27366 296.605 1.19639C295.892 1.0425 295.162 1 294.432 1Z" fill="#272B30" stroke="url(#paint0_angular_1258_1666)"/>
<defs>
<radialGradient id="paint0_angular_1258_1666" cx="0" cy="0" r="1" gradientUnits="userSpaceOnUse" gradientTransform="translate(191.655 130.286) rotate(90) scale(129.286 361.591)">
<stop offset="0.166667" stop-color="#D7D7D7"/>
<stop offset="0.395833" stop-color="#434343"/>
<stop offset="0.635417" stop-color="#DCDCDC"/>
<stop offset="0.895833" stop-color="#434343"/>
</radialGradient>
</defs>
</svg>
