<svg width="461" height="690" viewBox="0 0 461 690" fill="none" xmlns="http://www.w3.org/2000/svg">
<path opacity="0.5" d="M449 689.5H12C5.64872 689.5 0.5 684.351 0.5 678V12C0.5 5.64874 5.64873 0.5 12 0.5H316.845C319.715 0.5 322.481 1.5729 324.6 3.50799L337.726 15.494C340.029 17.5974 343.035 18.7636 346.155 18.7636H449C455.351 18.7636 460.5 23.9123 460.5 30.2636V678C460.5 684.351 455.351 689.5 449 689.5Z" fill="#1A1D1F" stroke="url(#paint0_angular_1234_3243)"/>
<mask id="mask0_1234_3243" style="mask-type:alpha" maskUnits="userSpaceOnUse" x="0" y="0" width="461" height="690">
<path opacity="0.5" d="M12 690H449C455.627 690 461 684.627 461 678V30.2636C461 23.6362 455.627 18.2636 449 18.2636H346.155C343.16 18.2636 340.274 17.144 338.063 15.1248L324.937 3.13877C322.726 1.11955 319.84 0 316.845 0H12C5.37258 0 0 5.3726 0 12V678C0 684.627 5.37258 690 12 690Z" fill="#D9D9D9"/>
</mask>
<g mask="url(#mask0_1234_3243)">
<g opacity="0.24" filter="url(#filter0_f_1234_3243)">
<circle cx="393.5" cy="69.5" r="139.5" fill="url(#paint1_angular_1234_3243)"/>
</g>
<g opacity="0.24" filter="url(#filter1_f_1234_3243)">
<circle cx="34.5" cy="568.5" r="139.5" fill="url(#paint2_angular_1234_3243)"/>
</g>
</g>
<defs>
<filter id="filter0_f_1234_3243" x="94" y="-230" width="599" height="599" filterUnits="userSpaceOnUse" color-interpolation-filters="sRGB">
<feFlood flood-opacity="0" result="BackgroundImageFix"/>
<feBlend mode="normal" in="SourceGraphic" in2="BackgroundImageFix" result="shape"/>
<feGaussianBlur stdDeviation="80" result="effect1_foregroundBlur_1234_3243"/>
</filter>
<filter id="filter1_f_1234_3243" x="-265" y="269" width="599" height="599" filterUnits="userSpaceOnUse" color-interpolation-filters="sRGB">
<feFlood flood-opacity="0" result="BackgroundImageFix"/>
<feBlend mode="normal" in="SourceGraphic" in2="BackgroundImageFix" result="shape"/>
<feGaussianBlur stdDeviation="80" result="effect1_foregroundBlur_1234_3243"/>
</filter>
<radialGradient id="paint0_angular_1234_3243" cx="0" cy="0" r="1" gradientUnits="userSpaceOnUse" gradientTransform="translate(230.5 345) rotate(90) scale(345 230.5)">
<stop offset="0.166667" stop-color="#D7D7D7"/>
<stop offset="0.395833" stop-color="#434343"/>
<stop offset="0.635417" stop-color="#DCDCDC"/>
<stop offset="0.885417" stop-color="#343434"/>
</radialGradient>
<radialGradient id="paint1_angular_1234_3243" cx="0" cy="0" r="1" gradientUnits="userSpaceOnUse" gradientTransform="translate(393.5 69.5) rotate(90) scale(139.5)">
<stop offset="0.166667" stop-color="#EEEEEE"/>
<stop offset="0.395833" stop-color="#9F9F9F"/>
<stop offset="0.635417" stop-color="#F3F3F3"/>
<stop offset="0.901064" stop-color="#ACACAC"/>
<stop offset="1" stop-color="#CACACA"/>
</radialGradient>
<radialGradient id="paint2_angular_1234_3243" cx="0" cy="0" r="1" gradientUnits="userSpaceOnUse" gradientTransform="translate(34.5 568.5) rotate(90) scale(139.5)">
<stop offset="0.166667" stop-color="#EEEEEE"/>
<stop offset="0.395833" stop-color="#9F9F9F"/>
<stop offset="0.635417" stop-color="#F3F3F3"/>
<stop offset="0.901064" stop-color="#ACACAC"/>
<stop offset="1" stop-color="#CACACA"/>
</radialGradient>
</defs>
</svg>
